<svg width="578" height="570" viewBox="0 0 578 570" fill="none" xmlns="http://www.w3.org/2000/svg">
<rect width="578" height="570" fill="white"/>
<circle cx="292.5" cy="156.5" r="39.5" fill="#F24822"/>
<path d="M280.389 146.111H279.059C279.008 145.827 278.913 145.577 278.774 145.361C278.635 145.145 278.464 144.962 278.263 144.811C278.061 144.661 277.835 144.547 277.585 144.47C277.338 144.393 277.075 144.355 276.797 144.355C276.294 144.355 275.843 144.482 275.446 144.734C275.051 144.987 274.738 145.358 274.508 145.847C274.281 146.335 274.167 146.932 274.167 147.636C274.167 148.347 274.281 148.946 274.508 149.435C274.738 149.923 275.052 150.293 275.45 150.543C275.848 150.793 276.295 150.918 276.792 150.918C277.068 150.918 277.329 150.881 277.576 150.807C277.826 150.73 278.052 150.618 278.254 150.47C278.456 150.322 278.626 150.142 278.765 149.929C278.907 149.713 279.005 149.466 279.059 149.188L280.389 149.192C280.318 149.621 280.18 150.016 279.976 150.376C279.774 150.734 279.514 151.044 279.196 151.305C278.88 151.564 278.52 151.764 278.113 151.906C277.707 152.048 277.264 152.119 276.784 152.119C276.028 152.119 275.355 151.94 274.764 151.582C274.173 151.222 273.707 150.706 273.366 150.036C273.028 149.365 272.859 148.565 272.859 147.636C272.859 146.705 273.03 145.905 273.37 145.237C273.711 144.567 274.177 144.053 274.768 143.695C275.359 143.334 276.031 143.153 276.784 143.153C277.247 143.153 277.679 143.22 278.079 143.354C278.483 143.484 278.845 143.678 279.166 143.933C279.487 144.186 279.753 144.496 279.963 144.862C280.173 145.226 280.315 145.642 280.389 146.111ZM284.662 152.119C284.051 152.119 283.512 152.014 283.043 151.804C282.577 151.594 282.212 151.304 281.948 150.935C281.683 150.565 281.553 150.145 281.556 149.673C281.553 149.304 281.628 148.964 281.781 148.655C281.938 148.342 282.149 148.082 282.416 147.875C282.683 147.665 282.982 147.531 283.311 147.474V147.423C282.877 147.318 282.529 147.085 282.267 146.724C282.006 146.364 281.877 145.949 281.879 145.48C281.877 145.034 281.995 144.636 282.233 144.287C282.475 143.935 282.806 143.658 283.226 143.456C283.647 143.254 284.125 143.153 284.662 143.153C285.193 143.153 285.668 143.256 286.085 143.46C286.506 143.662 286.837 143.939 287.078 144.291C287.32 144.641 287.442 145.037 287.445 145.48C287.442 145.949 287.308 146.364 287.044 146.724C286.78 147.085 286.436 147.318 286.013 147.423V147.474C286.34 147.531 286.634 147.665 286.895 147.875C287.159 148.082 287.37 148.342 287.526 148.655C287.685 148.964 287.766 149.304 287.769 149.673C287.766 150.145 287.632 150.565 287.368 150.935C287.104 151.304 286.737 151.594 286.269 151.804C285.803 152.014 285.267 152.119 284.662 152.119ZM284.662 151.041C285.023 151.041 285.335 150.982 285.6 150.862C285.864 150.74 286.068 150.571 286.213 150.355C286.358 150.136 286.432 149.881 286.435 149.588C286.432 149.284 286.352 149.016 286.196 148.783C286.043 148.55 285.834 148.366 285.57 148.233C285.306 148.099 285.003 148.033 284.662 148.033C284.318 148.033 284.013 148.099 283.746 148.233C283.479 148.366 283.269 148.55 283.115 148.783C282.962 149.016 282.887 149.284 282.889 149.588C282.887 149.881 282.956 150.136 283.098 150.355C283.243 150.571 283.449 150.74 283.716 150.862C283.983 150.982 284.298 151.041 284.662 151.041ZM284.662 146.98C284.952 146.98 285.209 146.922 285.433 146.805C285.658 146.689 285.834 146.527 285.962 146.32C286.093 146.112 286.159 145.869 286.162 145.591C286.159 145.318 286.094 145.08 285.966 144.875C285.841 144.67 285.666 144.513 285.442 144.402C285.218 144.288 284.958 144.232 284.662 144.232C284.361 144.232 284.097 144.288 283.87 144.402C283.645 144.513 283.47 144.67 283.345 144.875C283.22 145.08 283.159 145.318 283.162 145.591C283.159 145.869 283.222 146.112 283.35 146.32C283.477 146.527 283.654 146.689 283.878 146.805C284.105 146.922 284.367 146.98 284.662 146.98ZM293.037 147.082V148.19H289.168V147.082H293.037ZM296.022 143.273V152H294.705V143.273H296.022ZM300.633 152H297.808V143.273H300.722C301.578 143.273 302.312 143.447 302.926 143.797C303.539 144.143 304.009 144.642 304.336 145.293C304.666 145.94 304.83 146.717 304.83 147.624C304.83 148.533 304.664 149.314 304.332 149.967C304.002 150.621 303.525 151.124 302.9 151.476C302.275 151.825 301.519 152 300.633 152ZM299.124 150.849H300.561C301.225 150.849 301.778 150.724 302.218 150.474C302.659 150.222 302.988 149.857 303.207 149.379C303.426 148.899 303.535 148.314 303.535 147.624C303.535 146.939 303.426 146.358 303.207 145.881C302.991 145.403 302.668 145.041 302.24 144.794C301.811 144.547 301.278 144.423 300.641 144.423H299.124V150.849ZM309.097 152.119C308.563 152.119 308.083 152.017 307.657 151.812C307.234 151.605 306.895 151.321 306.643 150.96C306.39 150.599 306.255 150.188 306.238 149.724H307.516C307.547 150.099 307.714 150.408 308.015 150.649C308.316 150.891 308.677 151.011 309.097 151.011C309.432 151.011 309.729 150.935 309.988 150.781C310.249 150.625 310.454 150.411 310.601 150.138C310.752 149.865 310.827 149.554 310.827 149.205C310.827 148.849 310.751 148.533 310.597 148.254C310.444 147.976 310.232 147.757 309.962 147.598C309.695 147.439 309.388 147.358 309.042 147.355C308.778 147.355 308.512 147.401 308.245 147.491C307.978 147.582 307.762 147.702 307.597 147.849L306.391 147.67L306.881 143.273H311.68V144.402H307.976L307.699 146.844H307.751C307.921 146.679 308.147 146.541 308.428 146.43C308.712 146.32 309.016 146.264 309.34 146.264C309.871 146.264 310.344 146.391 310.759 146.643C311.177 146.896 311.505 147.241 311.744 147.679C311.985 148.114 312.104 148.614 312.101 149.179C312.104 149.744 311.976 150.249 311.718 150.692C311.462 151.135 311.107 151.484 310.653 151.74C310.201 151.993 309.682 152.119 309.097 152.119ZM275.211 164.111H273.881C273.83 163.827 273.735 163.577 273.596 163.361C273.457 163.145 273.286 162.962 273.084 162.811C272.883 162.661 272.657 162.547 272.407 162.47C272.16 162.393 271.897 162.355 271.618 162.355C271.116 162.355 270.665 162.482 270.268 162.734C269.873 162.987 269.56 163.358 269.33 163.847C269.103 164.335 268.989 164.932 268.989 165.636C268.989 166.347 269.103 166.946 269.33 167.435C269.56 167.923 269.874 168.293 270.272 168.543C270.67 168.793 271.117 168.918 271.614 168.918C271.89 168.918 272.151 168.881 272.398 168.807C272.648 168.73 272.874 168.618 273.076 168.47C273.278 168.322 273.448 168.142 273.587 167.929C273.729 167.713 273.827 167.466 273.881 167.188L275.211 167.192C275.14 167.621 275.002 168.016 274.797 168.376C274.596 168.734 274.336 169.044 274.018 169.305C273.702 169.564 273.341 169.764 272.935 169.906C272.529 170.048 272.086 170.119 271.606 170.119C270.85 170.119 270.177 169.94 269.586 169.582C268.995 169.222 268.529 168.706 268.188 168.036C267.85 167.365 267.681 166.565 267.681 165.636C267.681 164.705 267.851 163.905 268.192 163.237C268.533 162.567 268.999 162.053 269.59 161.695C270.181 161.334 270.853 161.153 271.606 161.153C272.069 161.153 272.501 161.22 272.901 161.354C273.305 161.484 273.667 161.678 273.988 161.933C274.309 162.186 274.574 162.496 274.785 162.862C274.995 163.226 275.137 163.642 275.211 164.111ZM281.414 163.565C281.369 163.162 281.181 162.849 280.852 162.628C280.522 162.403 280.108 162.291 279.608 162.291C279.25 162.291 278.94 162.348 278.679 162.462C278.417 162.572 278.214 162.726 278.069 162.922C277.927 163.115 277.856 163.335 277.856 163.582C277.856 163.79 277.904 163.969 278.001 164.119C278.1 164.27 278.23 164.396 278.389 164.499C278.551 164.598 278.724 164.682 278.909 164.75C279.093 164.815 279.271 164.869 279.441 164.912L280.294 165.134C280.572 165.202 280.858 165.294 281.15 165.411C281.443 165.527 281.714 165.68 281.964 165.871C282.214 166.061 282.416 166.297 282.569 166.578C282.725 166.859 282.804 167.196 282.804 167.588C282.804 168.082 282.676 168.521 282.42 168.905C282.167 169.288 281.799 169.591 281.316 169.812C280.836 170.034 280.255 170.145 279.573 170.145C278.92 170.145 278.355 170.041 277.877 169.834C277.4 169.626 277.027 169.332 276.757 168.952C276.487 168.568 276.338 168.114 276.309 167.588H277.63C277.656 167.903 277.758 168.166 277.937 168.376C278.119 168.584 278.35 168.739 278.632 168.841C278.916 168.94 279.227 168.99 279.565 168.99C279.937 168.99 280.268 168.932 280.558 168.815C280.85 168.696 281.081 168.531 281.248 168.321C281.416 168.108 281.5 167.859 281.5 167.575C281.5 167.317 281.426 167.105 281.278 166.94C281.133 166.776 280.936 166.639 280.686 166.531C280.439 166.423 280.159 166.328 279.846 166.246L278.815 165.964C278.116 165.774 277.562 165.494 277.153 165.125C276.747 164.756 276.544 164.267 276.544 163.659C276.544 163.156 276.68 162.717 276.953 162.342C277.225 161.967 277.595 161.676 278.061 161.469C278.527 161.259 279.052 161.153 279.637 161.153C280.228 161.153 280.75 161.257 281.201 161.464C281.656 161.672 282.014 161.957 282.275 162.321C282.537 162.682 282.673 163.097 282.684 163.565H281.414ZM287.075 170.119C286.464 170.119 285.924 170.014 285.455 169.804C284.989 169.594 284.624 169.304 284.36 168.935C284.096 168.565 283.965 168.145 283.968 167.673C283.965 167.304 284.041 166.964 284.194 166.655C284.35 166.342 284.562 166.082 284.829 165.875C285.096 165.665 285.394 165.531 285.724 165.474V165.423C285.289 165.318 284.941 165.085 284.68 164.724C284.418 164.364 284.289 163.949 284.292 163.48C284.289 163.034 284.407 162.636 284.646 162.287C284.887 161.935 285.218 161.658 285.639 161.456C286.059 161.254 286.538 161.153 287.075 161.153C287.606 161.153 288.08 161.256 288.498 161.46C288.918 161.662 289.249 161.939 289.491 162.291C289.732 162.641 289.854 163.037 289.857 163.48C289.854 163.949 289.721 164.364 289.457 164.724C289.193 165.085 288.849 165.318 288.426 165.423V165.474C288.752 165.531 289.046 165.665 289.308 165.875C289.572 166.082 289.782 166.342 289.938 166.655C290.097 166.964 290.178 167.304 290.181 167.673C290.178 168.145 290.045 168.565 289.781 168.935C289.516 169.304 289.15 169.594 288.681 169.804C288.215 170.014 287.68 170.119 287.075 170.119ZM287.075 169.041C287.435 169.041 287.748 168.982 288.012 168.862C288.276 168.74 288.481 168.571 288.626 168.355C288.771 168.136 288.845 167.881 288.847 167.588C288.845 167.284 288.765 167.016 288.609 166.783C288.455 166.55 288.247 166.366 287.982 166.233C287.718 166.099 287.416 166.033 287.075 166.033C286.731 166.033 286.426 166.099 286.158 166.233C285.891 166.366 285.681 166.55 285.528 166.783C285.374 167.016 285.299 167.284 285.302 167.588C285.299 167.881 285.369 168.136 285.511 168.355C285.656 168.571 285.862 168.74 286.129 168.862C286.396 168.982 286.711 169.041 287.075 169.041ZM287.075 164.98C287.364 164.98 287.622 164.922 287.846 164.805C288.07 164.689 288.247 164.527 288.374 164.32C288.505 164.112 288.572 163.869 288.575 163.591C288.572 163.318 288.506 163.08 288.379 162.875C288.254 162.67 288.079 162.513 287.854 162.402C287.63 162.288 287.37 162.232 287.075 162.232C286.774 162.232 286.509 162.288 286.282 162.402C286.058 162.513 285.883 162.67 285.758 162.875C285.633 163.08 285.572 163.318 285.575 163.591C285.572 163.869 285.634 164.112 285.762 164.32C285.89 164.527 286.066 164.689 286.291 164.805C286.518 164.922 286.779 164.98 287.075 164.98ZM295.449 165.082V166.19H291.58V165.082H295.449ZM295.973 162.406V161.273H302.727V162.406H300.004V170H298.691V162.406H295.973ZM303.793 170H302.396L305.536 161.273H307.058L310.198 170H308.8L306.333 162.858H306.265L303.793 170ZM304.028 166.582H308.562V167.69H304.028V166.582ZM314.254 170.119C313.865 170.114 313.481 170.043 313.103 169.906C312.728 169.77 312.388 169.543 312.081 169.224C311.774 168.906 311.528 168.479 311.344 167.942C311.162 167.405 311.071 166.734 311.071 165.93C311.071 165.169 311.146 164.493 311.297 163.902C311.45 163.311 311.67 162.812 311.957 162.406C312.244 161.997 312.591 161.686 312.997 161.473C313.403 161.26 313.859 161.153 314.365 161.153C314.885 161.153 315.346 161.256 315.75 161.46C316.153 161.665 316.48 161.947 316.73 162.308C316.983 162.669 317.143 163.08 317.211 163.54H315.912C315.824 163.176 315.649 162.879 315.388 162.649C315.126 162.419 314.785 162.304 314.365 162.304C313.726 162.304 313.227 162.582 312.869 163.139C312.514 163.696 312.335 164.47 312.332 165.462H312.396C312.547 165.214 312.731 165.004 312.95 164.831C313.172 164.655 313.419 164.52 313.692 164.426C313.967 164.33 314.257 164.281 314.561 164.281C315.067 164.281 315.524 164.405 315.933 164.652C316.345 164.896 316.673 165.234 316.917 165.666C317.162 166.098 317.284 166.592 317.284 167.149C317.284 167.706 317.157 168.21 316.905 168.662C316.655 169.114 316.302 169.472 315.848 169.736C315.393 169.997 314.862 170.125 314.254 170.119ZM314.25 169.011C314.585 169.011 314.885 168.929 315.149 168.764C315.413 168.599 315.622 168.378 315.775 168.099C315.929 167.821 316.005 167.51 316.005 167.166C316.005 166.831 315.93 166.526 315.78 166.25C315.632 165.974 315.427 165.756 315.166 165.594C314.907 165.432 314.612 165.351 314.28 165.351C314.027 165.351 313.792 165.399 313.576 165.496C313.363 165.592 313.176 165.726 313.014 165.896C312.852 166.067 312.724 166.263 312.63 166.484C312.54 166.703 312.494 166.935 312.494 167.179C312.494 167.506 312.569 167.808 312.72 168.087C312.873 168.365 313.082 168.589 313.346 168.76C313.613 168.928 313.915 169.011 314.25 169.011Z" fill="white"/>
<circle cx="206.5" cy="412.5" r="39.5" fill="#0D99FF"/>
<path d="M187.2 416.986C187.524 416.986 187.8 416.948 188.028 416.872C188.26 416.796 188.448 416.692 188.592 416.56C188.74 416.428 188.848 416.272 188.916 416.092C188.984 415.908 189.018 415.708 189.018 415.492C189.018 415.064 188.87 414.728 188.574 414.484C188.278 414.236 187.82 414.112 187.2 414.112H185.4V416.986H187.2ZM185.4 410.386V413.206H186.87C187.498 413.206 187.964 413.08 188.268 412.828C188.576 412.572 188.73 412.228 188.73 411.796C188.73 411.304 188.584 410.946 188.292 410.722C188 410.498 187.546 410.386 186.93 410.386H185.4ZM186.93 409.384C187.47 409.384 187.932 409.436 188.316 409.54C188.704 409.644 189.022 409.794 189.27 409.99C189.518 410.186 189.7 410.424 189.816 410.704C189.936 410.98 189.996 411.294 189.996 411.646C189.996 411.854 189.964 412.054 189.9 412.246C189.836 412.438 189.738 412.618 189.606 412.786C189.474 412.95 189.308 413.098 189.108 413.23C188.908 413.362 188.672 413.472 188.4 413.56C189.652 413.808 190.278 414.462 190.278 415.522C190.278 415.89 190.21 416.226 190.074 416.53C189.938 416.83 189.74 417.09 189.48 417.31C189.22 417.53 188.9 417.7 188.52 417.82C188.14 417.94 187.708 418 187.224 418H184.122V409.384H186.93ZM194.189 417.118C194.465 417.118 194.715 417.074 194.939 416.986C195.163 416.894 195.355 416.77 195.515 416.614C195.675 416.458 195.799 416.272 195.887 416.056C195.975 415.84 196.019 415.606 196.019 415.354C196.019 415.078 195.975 414.832 195.887 414.616C195.803 414.396 195.683 414.21 195.527 414.058C195.375 413.906 195.191 413.79 194.975 413.71C194.759 413.63 194.519 413.59 194.255 413.59C193.979 413.59 193.731 413.638 193.511 413.734C193.291 413.826 193.103 413.952 192.947 414.112C192.791 414.268 192.671 414.452 192.587 414.664C192.503 414.876 192.461 415.098 192.461 415.33C192.461 415.594 192.499 415.836 192.575 416.056C192.651 416.276 192.763 416.464 192.911 416.62C193.059 416.776 193.239 416.898 193.451 416.986C193.667 417.074 193.913 417.118 194.189 417.118ZM193.637 412.588C193.569 412.676 193.501 412.762 193.433 412.846C193.369 412.926 193.307 413.006 193.247 413.086C193.439 412.962 193.651 412.866 193.883 412.798C194.119 412.73 194.373 412.696 194.645 412.696C194.985 412.696 195.309 412.752 195.617 412.864C195.925 412.976 196.195 413.14 196.427 413.356C196.663 413.572 196.849 413.84 196.985 414.16C197.121 414.48 197.189 414.848 197.189 415.264C197.189 415.66 197.117 416.032 196.973 416.38C196.829 416.724 196.625 417.024 196.361 417.28C196.101 417.532 195.789 417.732 195.425 417.88C195.061 418.024 194.657 418.096 194.213 418.096C193.773 418.096 193.375 418.026 193.019 417.886C192.667 417.746 192.365 417.548 192.113 417.292C191.865 417.032 191.673 416.72 191.537 416.356C191.401 415.988 191.333 415.58 191.333 415.132C191.333 414.748 191.415 414.344 191.579 413.92C191.747 413.492 192.011 413.036 192.371 412.552L194.525 409.666C194.585 409.586 194.669 409.52 194.777 409.468C194.885 409.412 195.009 409.384 195.149 409.384H196.193L193.637 412.588ZM201.018 417.118C201.294 417.118 201.544 417.074 201.768 416.986C201.992 416.894 202.184 416.77 202.344 416.614C202.504 416.458 202.628 416.272 202.716 416.056C202.804 415.84 202.848 415.606 202.848 415.354C202.848 415.078 202.804 414.832 202.716 414.616C202.632 414.396 202.512 414.21 202.356 414.058C202.204 413.906 202.02 413.79 201.804 413.71C201.588 413.63 201.348 413.59 201.084 413.59C200.808 413.59 200.56 413.638 200.34 413.734C200.12 413.826 199.932 413.952 199.776 414.112C199.62 414.268 199.5 414.452 199.416 414.664C199.332 414.876 199.29 415.098 199.29 415.33C199.29 415.594 199.328 415.836 199.404 416.056C199.48 416.276 199.592 416.464 199.74 416.62C199.888 416.776 200.068 416.898 200.28 416.986C200.496 417.074 200.742 417.118 201.018 417.118ZM200.466 412.588C200.398 412.676 200.33 412.762 200.262 412.846C200.198 412.926 200.136 413.006 200.076 413.086C200.268 412.962 200.48 412.866 200.712 412.798C200.948 412.73 201.202 412.696 201.474 412.696C201.814 412.696 202.138 412.752 202.446 412.864C202.754 412.976 203.024 413.14 203.256 413.356C203.492 413.572 203.678 413.84 203.814 414.16C203.95 414.48 204.018 414.848 204.018 415.264C204.018 415.66 203.946 416.032 203.802 416.38C203.658 416.724 203.454 417.024 203.19 417.28C202.93 417.532 202.618 417.732 202.254 417.88C201.89 418.024 201.486 418.096 201.042 418.096C200.602 418.096 200.204 418.026 199.848 417.886C199.496 417.746 199.194 417.548 198.942 417.292C198.694 417.032 198.502 416.72 198.366 416.356C198.23 415.988 198.162 415.58 198.162 415.132C198.162 414.748 198.244 414.344 198.408 413.92C198.576 413.492 198.84 413.036 199.2 412.552L201.354 409.666C201.414 409.586 201.498 409.52 201.606 409.468C201.714 409.412 201.838 409.384 201.978 409.384H203.022L200.466 412.588ZM205.111 413.896H208.111V414.892H205.111V413.896ZM212.216 413.536C212.544 413.536 212.832 413.496 213.08 413.416C213.332 413.336 213.542 413.224 213.71 413.08C213.878 412.932 214.004 412.758 214.088 412.558C214.172 412.354 214.214 412.13 214.214 411.886C214.214 411.39 214.05 411.016 213.722 410.764C213.398 410.512 212.91 410.386 212.258 410.386H211.052V413.536H212.216ZM216.236 418H215.096C214.868 418 214.702 417.91 214.598 417.73L212.468 414.742C212.4 414.642 212.326 414.572 212.246 414.532C212.166 414.488 212.046 414.466 211.886 414.466H211.052V418H209.774V409.384H212.258C212.814 409.384 213.292 409.442 213.692 409.558C214.096 409.67 214.428 409.832 214.688 410.044C214.952 410.252 215.146 410.504 215.27 410.8C215.398 411.096 215.462 411.428 215.462 411.796C215.462 412.096 215.416 412.378 215.324 412.642C215.232 412.906 215.096 413.144 214.916 413.356C214.74 413.564 214.524 413.744 214.268 413.896C214.012 414.048 213.722 414.164 213.398 414.244C213.558 414.34 213.696 414.474 213.812 414.646L216.236 418ZM222.282 417.106V418H217.626V417.106H219.45V411.46C219.45 411.28 219.456 411.094 219.468 410.902L218.004 412.144C217.948 412.188 217.892 412.216 217.836 412.228C217.78 412.24 217.726 412.242 217.674 412.234C217.626 412.226 217.582 412.21 217.542 412.186C217.506 412.158 217.476 412.13 217.452 412.102L217.086 411.592L219.666 409.366H220.62V417.106H222.282ZM229.591 413.692C229.591 414.444 229.509 415.096 229.345 415.648C229.185 416.2 228.963 416.658 228.679 417.022C228.399 417.382 228.067 417.65 227.683 417.826C227.303 418.002 226.893 418.09 226.453 418.09C226.013 418.09 225.601 418.002 225.217 417.826C224.837 417.65 224.507 417.382 224.227 417.022C223.947 416.658 223.727 416.2 223.567 415.648C223.407 415.096 223.327 414.444 223.327 413.692C223.327 412.94 223.407 412.288 223.567 411.736C223.727 411.18 223.947 410.722 224.227 410.362C224.507 409.998 224.837 409.728 225.217 409.552C225.601 409.376 226.013 409.288 226.453 409.288C226.893 409.288 227.303 409.376 227.683 409.552C228.067 409.728 228.399 409.998 228.679 410.362C228.963 410.722 229.185 411.18 229.345 411.736C229.509 412.288 229.591 412.94 229.591 413.692ZM228.379 413.692C228.379 413.044 228.325 412.502 228.217 412.066C228.113 411.63 227.971 411.28 227.791 411.016C227.615 410.748 227.411 410.558 227.179 410.446C226.947 410.334 226.705 410.278 226.453 410.278C226.201 410.278 225.959 410.334 225.727 410.446C225.495 410.558 225.289 410.748 225.109 411.016C224.933 411.28 224.793 411.63 224.689 412.066C224.585 412.502 224.533 413.044 224.533 413.692C224.533 414.34 224.585 414.882 224.689 415.318C224.793 415.754 224.933 416.104 225.109 416.368C225.289 416.632 225.495 416.82 225.727 416.932C225.959 417.044 226.201 417.1 226.453 417.1C226.705 417.1 226.947 417.044 227.179 416.932C227.411 416.82 227.615 416.632 227.791 416.368C227.971 416.104 228.113 415.754 228.217 415.318C228.325 414.882 228.379 414.34 228.379 413.692Z" fill="white"/>
<circle cx="148.5" cy="250.5" r="39.5" fill="#14AE5C"/>
<path d="M133.009 247.384L129.505 256H128.359L124.855 247.384H125.875C125.987 247.384 126.077 247.412 126.145 247.468C126.217 247.524 126.271 247.596 126.307 247.684L128.635 253.54C128.691 253.684 128.745 253.842 128.797 254.014C128.853 254.186 128.903 254.366 128.947 254.554C128.987 254.366 129.031 254.186 129.079 254.014C129.127 253.842 129.179 253.684 129.235 253.54L131.557 247.684C131.585 247.604 131.635 247.534 131.707 247.474C131.783 247.414 131.875 247.384 131.983 247.384H133.009ZM137.031 254.986C137.355 254.986 137.631 254.948 137.859 254.872C138.091 254.796 138.279 254.692 138.423 254.56C138.571 254.428 138.679 254.272 138.747 254.092C138.815 253.908 138.849 253.708 138.849 253.492C138.849 253.064 138.701 252.728 138.405 252.484C138.109 252.236 137.651 252.112 137.031 252.112H135.231V254.986H137.031ZM135.231 248.386V251.206H136.701C137.329 251.206 137.795 251.08 138.099 250.828C138.407 250.572 138.561 250.228 138.561 249.796C138.561 249.304 138.415 248.946 138.123 248.722C137.831 248.498 137.377 248.386 136.761 248.386H135.231ZM136.761 247.384C137.301 247.384 137.763 247.436 138.147 247.54C138.535 247.644 138.853 247.794 139.101 247.99C139.349 248.186 139.531 248.424 139.647 248.704C139.767 248.98 139.827 249.294 139.827 249.646C139.827 249.854 139.795 250.054 139.731 250.246C139.667 250.438 139.569 250.618 139.437 250.786C139.305 250.95 139.139 251.098 138.939 251.23C138.739 251.362 138.503 251.472 138.231 251.56C139.483 251.808 140.109 252.462 140.109 253.522C140.109 253.89 140.041 254.226 139.905 254.53C139.769 254.83 139.571 255.09 139.311 255.31C139.051 255.53 138.731 255.7 138.351 255.82C137.971 255.94 137.539 256 137.055 256H133.953V247.384H136.761ZM144.908 252.856V249.496C144.908 249.38 144.91 249.258 144.914 249.13C144.922 248.998 144.936 248.862 144.956 248.722L141.938 252.856H144.908ZM147.182 252.856V253.534C147.182 253.602 147.16 253.66 147.116 253.708C147.072 253.756 147.01 253.78 146.93 253.78H145.934V256H144.908V253.78H141.128C141.04 253.78 140.966 253.756 140.906 253.708C140.846 253.656 140.806 253.592 140.786 253.516L140.666 252.916L144.83 247.378H145.934V252.856H147.182ZM153.513 255.106V256H148.857V255.106H150.681V249.46C150.681 249.28 150.687 249.094 150.699 248.902L149.235 250.144C149.179 250.188 149.123 250.216 149.067 250.228C149.011 250.24 148.957 250.242 148.905 250.234C148.857 250.226 148.813 250.21 148.773 250.186C148.737 250.158 148.707 250.13 148.683 250.102L148.317 249.592L150.897 247.366H151.851V255.106H153.513ZM154.942 251.896H157.942V252.892H154.942V251.896ZM160.889 248.422V251.308H164.345V252.346H160.889V256H159.605V247.384H164.945V248.422H160.889ZM171.328 255.106V256H166.672V255.106H168.496V249.46C168.496 249.28 168.502 249.094 168.514 248.902L167.05 250.144C166.994 250.188 166.938 250.216 166.882 250.228C166.826 250.24 166.772 250.242 166.72 250.234C166.672 250.226 166.628 250.21 166.588 250.186C166.552 250.158 166.522 250.13 166.498 250.102L166.132 249.592L168.712 247.366H169.666V255.106H171.328Z" fill="white"/>
<circle cx="429.5" cy="250.5" r="39.5" fill="#FFCD29"/>
<path d="M412.638 254.962L412.632 256H407.292V247.384H412.632V248.422H408.576V251.152H411.84V252.154H408.576V254.962H412.638ZM413.768 249.73C413.828 249.33 413.94 248.978 414.104 248.674C414.268 248.37 414.474 248.116 414.722 247.912C414.97 247.704 415.254 247.548 415.574 247.444C415.898 247.34 416.246 247.288 416.618 247.288C416.99 247.288 417.332 247.342 417.644 247.45C417.956 247.554 418.222 247.704 418.442 247.9C418.666 248.092 418.84 248.324 418.964 248.596C419.088 248.868 419.15 249.168 419.15 249.496C419.15 249.772 419.116 250.016 419.048 250.228C418.98 250.44 418.882 250.626 418.754 250.786C418.63 250.946 418.478 251.082 418.298 251.194C418.118 251.302 417.916 251.392 417.692 251.464C418.24 251.616 418.652 251.864 418.928 252.208C419.204 252.548 419.342 252.98 419.342 253.504C419.342 253.908 419.266 254.272 419.114 254.596C418.962 254.916 418.754 255.188 418.49 255.412C418.226 255.632 417.918 255.802 417.566 255.922C417.218 256.038 416.846 256.096 416.45 256.096C415.998 256.096 415.61 256.042 415.286 255.934C414.962 255.822 414.686 255.668 414.458 255.472C414.23 255.272 414.04 255.034 413.888 254.758C413.74 254.478 413.614 254.172 413.51 253.84L414.02 253.624C414.152 253.568 414.28 253.552 414.404 253.576C414.528 253.6 414.618 253.67 414.674 253.786C414.734 253.906 414.802 254.042 414.878 254.194C414.958 254.342 415.064 254.484 415.196 254.62C415.328 254.752 415.492 254.864 415.688 254.956C415.888 255.048 416.138 255.094 416.438 255.094C416.726 255.094 416.978 255.048 417.194 254.956C417.41 254.86 417.59 254.738 417.734 254.59C417.878 254.438 417.986 254.27 418.058 254.086C418.13 253.902 418.166 253.72 418.166 253.54C418.166 253.316 418.138 253.11 418.082 252.922C418.026 252.734 417.918 252.574 417.758 252.442C417.602 252.306 417.384 252.2 417.104 252.124C416.824 252.048 416.46 252.01 416.012 252.01V251.158C416.38 251.154 416.69 251.116 416.942 251.044C417.198 250.972 417.404 250.872 417.56 250.744C417.716 250.616 417.828 250.464 417.896 250.288C417.968 250.112 418.004 249.916 418.004 249.7C418.004 249.464 417.968 249.258 417.896 249.082C417.824 248.906 417.722 248.76 417.59 248.644C417.462 248.524 417.308 248.436 417.128 248.38C416.952 248.32 416.76 248.29 416.552 248.29C416.344 248.29 416.152 248.32 415.976 248.38C415.8 248.44 415.644 248.524 415.508 248.632C415.372 248.74 415.258 248.868 415.166 249.016C415.074 249.164 415.008 249.324 414.968 249.496C414.912 249.648 414.84 249.75 414.752 249.802C414.668 249.854 414.546 249.866 414.386 249.838L413.768 249.73ZM423.321 255.118C423.597 255.118 423.847 255.074 424.071 254.986C424.295 254.894 424.487 254.77 424.647 254.614C424.807 254.458 424.931 254.272 425.019 254.056C425.107 253.84 425.151 253.606 425.151 253.354C425.151 253.078 425.107 252.832 425.019 252.616C424.935 252.396 424.815 252.21 424.659 252.058C424.507 251.906 424.323 251.79 424.107 251.71C423.891 251.63 423.651 251.59 423.387 251.59C423.111 251.59 422.863 251.638 422.643 251.734C422.423 251.826 422.235 251.952 422.079 252.112C421.923 252.268 421.803 252.452 421.719 252.664C421.635 252.876 421.593 253.098 421.593 253.33C421.593 253.594 421.631 253.836 421.707 254.056C421.783 254.276 421.895 254.464 422.043 254.62C422.191 254.776 422.371 254.898 422.583 254.986C422.799 255.074 423.045 255.118 423.321 255.118ZM422.769 250.588C422.701 250.676 422.633 250.762 422.565 250.846C422.501 250.926 422.439 251.006 422.379 251.086C422.571 250.962 422.783 250.866 423.015 250.798C423.251 250.73 423.505 250.696 423.777 250.696C424.117 250.696 424.441 250.752 424.749 250.864C425.057 250.976 425.327 251.14 425.559 251.356C425.795 251.572 425.981 251.84 426.117 252.16C426.253 252.48 426.321 252.848 426.321 253.264C426.321 253.66 426.249 254.032 426.105 254.38C425.961 254.724 425.757 255.024 425.493 255.28C425.233 255.532 424.921 255.732 424.557 255.88C424.193 256.024 423.789 256.096 423.345 256.096C422.905 256.096 422.507 256.026 422.151 255.886C421.799 255.746 421.497 255.548 421.245 255.292C420.997 255.032 420.805 254.72 420.669 254.356C420.533 253.988 420.465 253.58 420.465 253.132C420.465 252.748 420.547 252.344 420.711 251.92C420.879 251.492 421.143 251.036 421.503 250.552L423.657 247.666C423.717 247.586 423.801 247.52 423.909 247.468C424.017 247.412 424.141 247.384 424.281 247.384H425.325L422.769 250.588ZM427.414 251.896H430.414V252.892H427.414V251.896ZM435.154 254.986C435.478 254.986 435.754 254.948 435.982 254.872C436.214 254.796 436.402 254.692 436.546 254.56C436.694 254.428 436.802 254.272 436.87 254.092C436.938 253.908 436.972 253.708 436.972 253.492C436.972 253.064 436.824 252.728 436.528 252.484C436.232 252.236 435.774 252.112 435.154 252.112H433.354V254.986H435.154ZM433.354 248.386V251.206H434.824C435.452 251.206 435.918 251.08 436.222 250.828C436.53 250.572 436.684 250.228 436.684 249.796C436.684 249.304 436.538 248.946 436.246 248.722C435.954 248.498 435.5 248.386 434.884 248.386H433.354ZM434.884 247.384C435.424 247.384 435.886 247.436 436.27 247.54C436.658 247.644 436.976 247.794 437.224 247.99C437.472 248.186 437.654 248.424 437.77 248.704C437.89 248.98 437.95 249.294 437.95 249.646C437.95 249.854 437.918 250.054 437.854 250.246C437.79 250.438 437.692 250.618 437.56 250.786C437.428 250.95 437.262 251.098 437.062 251.23C436.862 251.362 436.626 251.472 436.354 251.56C437.606 251.808 438.232 252.462 438.232 253.522C438.232 253.89 438.164 254.226 438.028 254.53C437.892 254.83 437.694 255.09 437.434 255.31C437.174 255.53 436.854 255.7 436.474 255.82C436.094 255.94 435.662 256 435.178 256H432.076V247.384H434.884ZM442.347 251.818C442.671 251.818 442.955 251.776 443.199 251.692C443.447 251.608 443.653 251.49 443.817 251.338C443.985 251.182 444.111 250.998 444.195 250.786C444.279 250.57 444.321 250.332 444.321 250.072C444.321 249.548 444.157 249.136 443.829 248.836C443.505 248.536 443.011 248.386 442.347 248.386H441.015V251.818H442.347ZM442.347 247.384C442.899 247.384 443.379 247.448 443.787 247.576C444.195 247.704 444.533 247.886 444.801 248.122C445.069 248.354 445.267 248.636 445.395 248.968C445.527 249.3 445.593 249.668 445.593 250.072C445.593 250.476 445.523 250.848 445.383 251.188C445.243 251.524 445.037 251.814 444.765 252.058C444.493 252.302 444.153 252.492 443.745 252.628C443.341 252.76 442.875 252.826 442.347 252.826H441.015V256H439.737V247.384H442.347ZM446.553 249.73C446.613 249.33 446.725 248.978 446.889 248.674C447.053 248.37 447.259 248.116 447.507 247.912C447.755 247.704 448.039 247.548 448.359 247.444C448.683 247.34 449.031 247.288 449.403 247.288C449.775 247.288 450.117 247.342 450.429 247.45C450.741 247.554 451.007 247.704 451.227 247.9C451.451 248.092 451.625 248.324 451.749 248.596C451.873 248.868 451.935 249.168 451.935 249.496C451.935 249.772 451.901 250.016 451.833 250.228C451.765 250.44 451.667 250.626 451.539 250.786C451.415 250.946 451.263 251.082 451.083 251.194C450.903 251.302 450.701 251.392 450.477 251.464C451.025 251.616 451.437 251.864 451.713 252.208C451.989 252.548 452.127 252.98 452.127 253.504C452.127 253.908 452.051 254.272 451.899 254.596C451.747 254.916 451.539 255.188 451.275 255.412C451.011 255.632 450.703 255.802 450.351 255.922C450.003 256.038 449.631 256.096 449.235 256.096C448.783 256.096 448.395 256.042 448.071 255.934C447.747 255.822 447.471 255.668 447.243 255.472C447.015 255.272 446.825 255.034 446.673 254.758C446.525 254.478 446.399 254.172 446.295 253.84L446.805 253.624C446.937 253.568 447.065 253.552 447.189 253.576C447.313 253.6 447.403 253.67 447.459 253.786C447.519 253.906 447.587 254.042 447.663 254.194C447.743 254.342 447.849 254.484 447.981 254.62C448.113 254.752 448.277 254.864 448.473 254.956C448.673 255.048 448.923 255.094 449.223 255.094C449.511 255.094 449.763 255.048 449.979 254.956C450.195 254.86 450.375 254.738 450.519 254.59C450.663 254.438 450.771 254.27 450.843 254.086C450.915 253.902 450.951 253.72 450.951 253.54C450.951 253.316 450.923 253.11 450.867 252.922C450.811 252.734 450.703 252.574 450.543 252.442C450.387 252.306 450.169 252.2 449.889 252.124C449.609 252.048 449.245 252.01 448.797 252.01V251.158C449.165 251.154 449.475 251.116 449.727 251.044C449.983 250.972 450.189 250.872 450.345 250.744C450.501 250.616 450.613 250.464 450.681 250.288C450.753 250.112 450.789 249.916 450.789 249.7C450.789 249.464 450.753 249.258 450.681 249.082C450.609 248.906 450.507 248.76 450.375 248.644C450.247 248.524 450.093 248.436 449.913 248.38C449.737 248.32 449.545 248.29 449.337 248.29C449.129 248.29 448.937 248.32 448.761 248.38C448.585 248.44 448.429 248.524 448.293 248.632C448.157 248.74 448.043 248.868 447.951 249.016C447.859 249.164 447.793 249.324 447.753 249.496C447.697 249.648 447.625 249.75 447.537 249.802C447.453 249.854 447.331 249.866 447.171 249.838L446.553 249.73Z" fill="black" fill-opacity="0.8"/>
<ellipse cx="379" cy="412.5" rx="40" ry="39.5" fill="#757575"/>
<path d="M362.768 418H361.484V409.384H362.768V418ZM371.794 413.806V417.166C371.358 417.478 370.894 417.712 370.402 417.868C369.91 418.02 369.374 418.096 368.794 418.096C368.098 418.096 367.468 417.988 366.904 417.772C366.344 417.556 365.866 417.254 365.47 416.866C365.074 416.478 364.768 416.014 364.552 415.474C364.34 414.934 364.234 414.34 364.234 413.692C364.234 413.04 364.336 412.444 364.54 411.904C364.748 411.36 365.044 410.896 365.428 410.512C365.812 410.124 366.276 409.824 366.82 409.612C367.368 409.396 367.982 409.288 368.662 409.288C369.006 409.288 369.324 409.314 369.616 409.366C369.912 409.418 370.186 409.492 370.438 409.588C370.69 409.684 370.922 409.8 371.134 409.936C371.35 410.068 371.55 410.218 371.734 410.386L371.368 410.962C371.312 411.054 371.238 411.112 371.146 411.136C371.054 411.16 370.954 411.138 370.846 411.07C370.742 411.01 370.626 410.94 370.498 410.86C370.374 410.78 370.224 410.706 370.048 410.638C369.876 410.57 369.674 410.512 369.442 410.464C369.21 410.416 368.936 410.392 368.62 410.392C368.148 410.392 367.722 410.47 367.342 410.626C366.962 410.778 366.638 410.998 366.37 411.286C366.102 411.574 365.896 411.922 365.752 412.33C365.608 412.734 365.536 413.188 365.536 413.692C365.536 414.22 365.612 414.694 365.764 415.114C365.916 415.53 366.13 415.884 366.406 416.176C366.686 416.464 367.024 416.684 367.42 416.836C367.82 416.988 368.266 417.064 368.758 417.064C368.95 417.064 369.128 417.054 369.292 417.034C369.46 417.01 369.62 416.978 369.772 416.938C369.924 416.898 370.07 416.848 370.21 416.788C370.354 416.728 370.496 416.662 370.636 416.59V414.784H369.364C369.284 414.784 369.218 414.76 369.166 414.712C369.118 414.664 369.094 414.604 369.094 414.532V413.806H371.794ZM378.454 417.106V418H373.798V417.106H375.622V411.46C375.622 411.28 375.628 411.094 375.64 410.902L374.176 412.144C374.12 412.188 374.064 412.216 374.008 412.228C373.952 412.24 373.898 412.242 373.846 412.234C373.798 412.226 373.754 412.21 373.714 412.186C373.678 412.158 373.648 412.13 373.624 412.102L373.258 411.592L375.838 409.366H376.792V417.106H378.454ZM379.883 413.896H382.883V414.892H379.883V413.896ZM387.156 413.818C387.48 413.818 387.764 413.776 388.008 413.692C388.256 413.608 388.462 413.49 388.626 413.338C388.794 413.182 388.92 412.998 389.004 412.786C389.088 412.57 389.13 412.332 389.13 412.072C389.13 411.548 388.966 411.136 388.638 410.836C388.314 410.536 387.82 410.386 387.156 410.386H385.824V413.818H387.156ZM387.156 409.384C387.708 409.384 388.188 409.448 388.596 409.576C389.004 409.704 389.342 409.886 389.61 410.122C389.878 410.354 390.076 410.636 390.204 410.968C390.336 411.3 390.402 411.668 390.402 412.072C390.402 412.476 390.332 412.848 390.192 413.188C390.052 413.524 389.846 413.814 389.574 414.058C389.302 414.302 388.962 414.492 388.554 414.628C388.15 414.76 387.684 414.826 387.156 414.826H385.824V418H384.546V409.384H387.156ZM394.097 417.166C394.369 417.166 394.611 417.128 394.823 417.052C395.035 416.976 395.215 416.87 395.363 416.734C395.511 416.594 395.623 416.428 395.699 416.236C395.775 416.044 395.813 415.834 395.813 415.606C395.813 415.326 395.767 415.086 395.675 414.886C395.583 414.682 395.459 414.516 395.303 414.388C395.147 414.256 394.965 414.16 394.757 414.1C394.549 414.036 394.329 414.004 394.097 414.004C393.861 414.004 393.639 414.036 393.431 414.1C393.223 414.16 393.041 414.256 392.885 414.388C392.729 414.516 392.605 414.682 392.513 414.886C392.425 415.086 392.381 415.326 392.381 415.606C392.381 415.834 392.419 416.044 392.495 416.236C392.571 416.428 392.683 416.594 392.831 416.734C392.979 416.87 393.159 416.976 393.371 417.052C393.583 417.128 393.825 417.166 394.097 417.166ZM394.097 410.188C393.849 410.188 393.631 410.226 393.443 410.302C393.259 410.374 393.105 410.474 392.981 410.602C392.857 410.73 392.763 410.878 392.699 411.046C392.639 411.214 392.609 411.394 392.609 411.586C392.609 411.774 392.635 411.958 392.687 412.138C392.743 412.314 392.829 412.472 392.945 412.612C393.065 412.748 393.219 412.858 393.407 412.942C393.595 413.026 393.825 413.068 394.097 413.068C394.365 413.068 394.593 413.026 394.781 412.942C394.973 412.858 395.127 412.748 395.243 412.612C395.363 412.472 395.449 412.314 395.501 412.138C395.557 411.958 395.585 411.774 395.585 411.586C395.585 411.394 395.553 411.214 395.489 411.046C395.429 410.878 395.337 410.73 395.213 410.602C395.089 410.474 394.933 410.374 394.745 410.302C394.561 410.226 394.345 410.188 394.097 410.188ZM395.387 413.506C395.923 413.666 396.329 413.924 396.605 414.28C396.885 414.636 397.025 415.086 397.025 415.63C397.025 416.006 396.953 416.346 396.809 416.65C396.669 416.954 396.469 417.214 396.209 417.43C395.953 417.642 395.645 417.806 395.285 417.922C394.925 418.038 394.529 418.096 394.097 418.096C393.665 418.096 393.269 418.038 392.909 417.922C392.549 417.806 392.239 417.642 391.979 417.43C391.723 417.214 391.523 416.954 391.379 416.65C391.239 416.346 391.169 416.006 391.169 415.63C391.169 415.086 391.307 414.636 391.583 414.28C391.863 413.924 392.271 413.666 392.807 413.506C392.363 413.338 392.029 413.088 391.805 412.756C391.581 412.42 391.469 412.022 391.469 411.562C391.469 411.242 391.531 410.944 391.655 410.668C391.783 410.388 391.961 410.146 392.189 409.942C392.421 409.738 392.699 409.578 393.023 409.462C393.347 409.346 393.705 409.288 394.097 409.288C394.489 409.288 394.847 409.346 395.171 409.462C395.495 409.578 395.771 409.738 395.999 409.942C396.231 410.146 396.409 410.388 396.533 410.668C396.661 410.944 396.725 411.242 396.725 411.562C396.725 412.022 396.613 412.42 396.389 412.756C396.165 413.088 395.831 413.338 395.387 413.506Z" fill="white"/>
<path d="M249.5 411.5C248.948 411.5 248.5 411.948 248.5 412.5C248.5 413.052 248.948 413.5 249.5 413.5V411.5ZM336.207 413.207C336.598 412.817 336.598 412.183 336.207 411.793L329.843 405.429C329.453 405.038 328.819 405.038 328.429 405.429C328.038 405.819 328.038 406.453 328.429 406.843L334.086 412.5L328.429 418.157C328.038 418.547 328.038 419.181 328.429 419.571C328.819 419.962 329.453 419.962 329.843 419.571L336.207 413.207ZM249.5 413.5H335.5V411.5H249.5V413.5Z" fill="#1E1E1E"/>
<path d="M390.855 371.109C390.691 371.636 390.985 372.197 391.512 372.361C392.04 372.526 392.6 372.232 392.765 371.704L390.855 371.109ZM417.589 291.087C417.332 290.598 416.728 290.41 416.239 290.666L408.269 294.848C407.78 295.104 407.592 295.709 407.848 296.198C408.105 296.687 408.709 296.875 409.198 296.619L416.282 292.902L419.999 299.986C420.256 300.475 420.86 300.663 421.349 300.407C421.839 300.15 422.027 299.546 421.77 299.057L417.589 291.087ZM392.765 371.704L417.658 291.849L415.748 291.254L390.855 371.109L392.765 371.704Z" fill="#1E1E1E"/>
<path d="M393.478 226.997C393.933 227.309 394.556 227.193 394.868 226.738C395.181 226.283 395.065 225.66 394.609 225.348L393.478 226.997ZM327.774 179.845C327.231 179.946 326.872 180.468 326.973 181.011L328.62 189.859C328.722 190.402 329.244 190.76 329.787 190.659C330.33 190.558 330.688 190.036 330.587 189.493L329.123 181.628L336.988 180.164C337.531 180.063 337.889 179.541 337.788 178.998C337.687 178.455 337.165 178.097 336.622 178.198L327.774 179.845ZM394.609 225.348L328.522 180.003L327.391 181.652L393.478 226.997L394.609 225.348Z" fill="#1E1E1E"/>
<path d="M257.039 180.842C257.502 180.54 257.632 179.921 257.33 179.458C257.028 178.996 256.409 178.865 255.946 179.167L257.039 180.842ZM183.529 226.79C183.415 227.33 183.761 227.86 184.302 227.974L193.109 229.824C193.65 229.938 194.18 229.592 194.294 229.051C194.407 228.511 194.061 227.98 193.521 227.867L185.692 226.222L187.336 218.393C187.45 217.853 187.104 217.322 186.563 217.209C186.023 217.095 185.493 217.441 185.379 217.982L183.529 226.79ZM255.946 179.167L183.961 226.158L185.054 227.833L257.039 180.842L255.946 179.167Z" fill="#1E1E1E"/>
<path d="M395.299 276.582C395.745 276.257 395.844 275.632 395.52 275.185C395.195 274.738 394.57 274.639 394.123 274.964L395.299 276.582ZM240.301 387.071C240.215 387.616 240.587 388.128 241.133 388.215L250.022 389.623C250.567 389.71 251.079 389.338 251.166 388.792C251.252 388.247 250.88 387.734 250.335 387.648L242.433 386.396L243.685 378.495C243.772 377.949 243.399 377.437 242.854 377.35C242.308 377.264 241.796 377.636 241.71 378.182L240.301 387.071ZM394.123 274.964L240.701 386.418L241.877 388.036L395.299 276.582L394.123 274.964Z" fill="#1E1E1E"/>
<path d="M163.936 290.647C163.749 290.127 163.177 289.856 162.657 290.042C162.137 290.228 161.867 290.801 162.053 291.321L163.936 290.647ZM191.579 372.92C192.078 373.157 192.674 372.943 192.91 372.444L196.756 364.307C196.992 363.808 196.779 363.212 196.28 362.976C195.78 362.74 195.184 362.953 194.948 363.452L191.529 370.685L184.297 367.266C183.797 367.03 183.201 367.243 182.965 367.743C182.729 368.242 182.943 368.838 183.442 369.074L191.579 372.92ZM162.053 291.321L191.064 372.353L192.947 371.679L163.936 290.647L162.053 291.321Z" fill="#1E1E1E"/>
<path d="M342.972 388.401C343.424 388.719 344.048 388.61 344.366 388.158C344.683 387.706 344.574 387.083 344.122 386.765L342.972 388.401ZM183.508 274.24C182.964 274.335 182.6 274.853 182.695 275.397L184.242 284.263C184.337 284.807 184.855 285.171 185.399 285.077C185.943 284.982 186.308 284.464 186.213 283.919L184.837 276.039L192.718 274.663C193.262 274.568 193.626 274.05 193.531 273.506C193.436 272.962 192.918 272.598 192.374 272.693L183.508 274.24ZM344.122 386.765L184.255 274.407L183.105 276.044L342.972 388.401L344.122 386.765Z" fill="#1E1E1E"/>
<path d="M219.245 371.42C219.07 371.944 219.351 372.511 219.875 372.686C220.398 372.862 220.965 372.581 221.141 372.057L219.245 371.42ZM279.702 196.816C279.456 196.322 278.856 196.12 278.362 196.366L270.302 200.372C269.808 200.618 269.606 201.218 269.852 201.713C270.098 202.207 270.698 202.409 271.193 202.163L278.356 198.602L281.917 205.766C282.163 206.26 282.763 206.462 283.258 206.216C283.753 205.97 283.954 205.37 283.708 204.876L279.702 196.816ZM221.141 372.057L279.755 197.58L277.859 196.943L219.245 371.42L221.141 372.057Z" fill="#1E1E1E"/>
<path d="M191.5 249.5C190.948 249.5 190.5 249.948 190.5 250.5C190.5 251.052 190.948 251.5 191.5 251.5V249.5ZM387.207 251.207C387.598 250.817 387.598 250.183 387.207 249.793L380.843 243.429C380.453 243.038 379.819 243.038 379.429 243.429C379.038 243.819 379.038 244.453 379.429 244.843L385.086 250.5L379.429 256.157C379.038 256.547 379.038 257.181 379.429 257.571C379.819 257.962 380.453 257.962 380.843 257.571L387.207 251.207ZM191.5 251.5H386.5V249.5H191.5V251.5Z" fill="#1E1E1E"/>
<path d="M307.212 196.917C307.035 196.394 306.468 196.113 305.945 196.29C305.421 196.467 305.14 197.034 305.317 197.557L307.212 196.917ZM364.775 372.611C365.27 372.856 365.87 372.653 366.115 372.158L370.107 364.092C370.352 363.597 370.149 362.997 369.654 362.752C369.159 362.507 368.56 362.71 368.315 363.205L364.766 370.375L357.596 366.827C357.101 366.582 356.501 366.784 356.256 367.279C356.012 367.774 356.214 368.374 356.709 368.619L364.775 372.611ZM305.317 197.557L364.272 372.035L366.166 371.395L307.212 196.917L305.317 197.557Z" fill="#1E1E1E"/>
<rect width="30" height="4" transform="translate(278 71)" fill="black"/>
<rect width="10" height="4" transform="translate(278 79)" fill="black"/>
<rect width="10" height="4" transform="translate(298 79)" fill="black"/>
<rect width="30" height="4" transform="translate(278 87)" fill="black"/>
<path d="M279.409 97.422V100.308H282.865V101.346H279.409V105H278.125V96.384H283.465V97.422H279.409ZM289.163 98.904V105H288.461C288.301 105 288.197 104.922 288.149 104.766L288.065 104.154C287.933 104.294 287.795 104.422 287.651 104.538C287.507 104.654 287.353 104.754 287.189 104.838C287.025 104.918 286.851 104.98 286.667 105.024C286.483 105.072 286.285 105.096 286.073 105.096C285.737 105.096 285.441 105.04 285.185 104.928C284.933 104.816 284.721 104.66 284.549 104.46C284.377 104.256 284.247 104.012 284.159 103.728C284.071 103.444 284.027 103.13 284.027 102.786V98.904H285.203V102.786C285.203 103.222 285.303 103.562 285.503 103.806C285.703 104.046 286.009 104.166 286.421 104.166C286.721 104.166 287.001 104.096 287.261 103.956C287.521 103.812 287.765 103.616 287.993 103.368V98.904H289.163ZM294.702 101.274C294.702 101.042 294.668 100.828 294.6 100.632C294.536 100.436 294.44 100.266 294.312 100.122C294.184 99.978 294.028 99.866 293.844 99.786C293.66 99.706 293.448 99.666 293.208 99.666C292.716 99.666 292.328 99.808 292.044 100.092C291.764 100.376 291.586 100.77 291.51 101.274H294.702ZM295.668 104.13C295.524 104.298 295.358 104.444 295.17 104.568C294.982 104.688 294.782 104.786 294.57 104.862C294.358 104.938 294.138 104.994 293.91 105.03C293.686 105.066 293.464 105.084 293.244 105.084C292.824 105.084 292.434 105.014 292.074 104.874C291.718 104.73 291.408 104.522 291.144 104.25C290.884 103.974 290.68 103.634 290.532 103.23C290.388 102.822 290.316 102.354 290.316 101.826C290.316 101.402 290.382 101.008 290.514 100.644C290.646 100.276 290.834 99.956 291.078 99.684C291.326 99.412 291.628 99.198 291.984 99.042C292.34 98.886 292.74 98.808 293.184 98.808C293.556 98.808 293.898 98.87 294.21 98.994C294.526 99.114 294.798 99.29 295.026 99.522C295.254 99.754 295.432 100.04 295.56 100.38C295.692 100.72 295.758 101.108 295.758 101.544C295.758 101.724 295.738 101.846 295.698 101.91C295.658 101.97 295.584 102 295.476 102H291.48C291.492 102.364 291.544 102.682 291.636 102.954C291.728 103.222 291.854 103.446 292.014 103.626C292.178 103.806 292.372 103.94 292.596 104.028C292.82 104.116 293.07 104.16 293.346 104.16C293.606 104.16 293.83 104.13 294.018 104.07C294.21 104.01 294.374 103.946 294.51 103.878C294.65 103.806 294.766 103.74 294.858 103.68C294.954 103.62 295.038 103.59 295.11 103.59C295.206 103.59 295.28 103.626 295.332 103.698L295.668 104.13ZM299.025 101.958C299.233 101.958 299.415 101.93 299.571 101.874C299.731 101.818 299.863 101.74 299.967 101.64C300.075 101.536 300.155 101.412 300.207 101.268C300.263 101.124 300.291 100.966 300.291 100.794C300.291 100.442 300.183 100.162 299.967 99.954C299.755 99.742 299.441 99.636 299.025 99.636C298.613 99.636 298.299 99.742 298.083 99.954C297.871 100.162 297.765 100.442 297.765 100.794C297.765 100.966 297.791 101.124 297.843 101.268C297.899 101.408 297.979 101.53 298.083 101.634C298.191 101.734 298.323 101.814 298.479 101.874C298.639 101.93 298.821 101.958 299.025 101.958ZM300.891 105.318C300.891 105.174 300.851 105.06 300.771 104.976C300.691 104.888 300.581 104.82 300.441 104.772C300.305 104.72 300.145 104.684 299.961 104.664C299.777 104.64 299.583 104.622 299.379 104.61C299.179 104.598 298.973 104.588 298.761 104.58C298.549 104.568 298.345 104.548 298.149 104.52C297.941 104.624 297.769 104.75 297.633 104.898C297.501 105.046 297.435 105.22 297.435 105.42C297.435 105.548 297.467 105.668 297.531 105.78C297.599 105.892 297.701 105.988 297.837 106.068C297.977 106.152 298.151 106.216 298.359 106.26C298.571 106.308 298.823 106.332 299.115 106.332C299.403 106.332 299.657 106.306 299.877 106.254C300.097 106.206 300.281 106.136 300.429 106.044C300.581 105.956 300.695 105.85 300.771 105.726C300.851 105.602 300.891 105.466 300.891 105.318ZM302.079 99.132V99.57C302.079 99.714 301.989 99.804 301.809 99.84L301.155 99.936C301.211 100.06 301.255 100.192 301.287 100.332C301.319 100.468 301.335 100.612 301.335 100.764C301.335 101.064 301.277 101.336 301.161 101.58C301.045 101.82 300.885 102.026 300.681 102.198C300.477 102.37 300.233 102.502 299.949 102.594C299.669 102.686 299.361 102.732 299.025 102.732C298.749 102.732 298.491 102.702 298.251 102.642C298.131 102.714 298.039 102.794 297.975 102.882C297.915 102.966 297.885 103.05 297.885 103.134C297.885 103.274 297.943 103.378 298.059 103.446C298.179 103.514 298.333 103.564 298.521 103.596C298.713 103.624 298.931 103.642 299.175 103.65C299.423 103.658 299.673 103.672 299.925 103.692C300.181 103.708 300.431 103.74 300.675 103.788C300.923 103.832 301.141 103.906 301.329 104.01C301.521 104.11 301.675 104.25 301.791 104.43C301.911 104.606 301.971 104.836 301.971 105.12C301.971 105.384 301.905 105.64 301.773 105.888C301.645 106.136 301.457 106.356 301.209 106.548C300.961 106.74 300.659 106.894 300.303 107.01C299.947 107.126 299.543 107.184 299.091 107.184C298.639 107.184 298.245 107.14 297.909 107.052C297.577 106.964 297.299 106.846 297.075 106.698C296.855 106.55 296.689 106.378 296.577 106.182C296.469 105.986 296.415 105.782 296.415 105.57C296.415 105.274 296.507 105.024 296.691 104.82C296.875 104.612 297.129 104.45 297.453 104.334C297.277 104.254 297.137 104.146 297.033 104.01C296.929 103.87 296.877 103.686 296.877 103.458C296.877 103.37 296.893 103.28 296.925 103.188C296.957 103.092 297.005 102.998 297.069 102.906C297.137 102.81 297.219 102.72 297.315 102.636C297.415 102.552 297.529 102.476 297.657 102.408C297.357 102.24 297.121 102.018 296.949 101.742C296.777 101.462 296.691 101.136 296.691 100.764C296.691 100.464 296.749 100.194 296.865 99.954C296.981 99.714 297.141 99.508 297.345 99.336C297.553 99.164 297.799 99.032 298.083 98.94C298.371 98.848 298.685 98.802 299.025 98.802C299.553 98.802 300.007 98.912 300.387 99.132H302.079ZM305.525 98.808C305.973 98.808 306.377 98.882 306.737 99.03C307.101 99.174 307.409 99.384 307.661 99.66C307.917 99.932 308.113 100.262 308.249 100.65C308.385 101.034 308.453 101.466 308.453 101.946C308.453 102.426 308.385 102.86 308.249 103.248C308.113 103.636 307.917 103.966 307.661 104.238C307.409 104.51 307.101 104.72 306.737 104.868C306.377 105.012 305.973 105.084 305.525 105.084C305.073 105.084 304.665 105.012 304.301 104.868C303.941 104.72 303.633 104.51 303.377 104.238C303.121 103.966 302.923 103.636 302.783 103.248C302.647 102.86 302.579 102.426 302.579 101.946C302.579 101.466 302.647 101.034 302.783 100.65C302.923 100.262 303.121 99.932 303.377 99.66C303.633 99.384 303.941 99.174 304.301 99.03C304.665 98.882 305.073 98.808 305.525 98.808ZM305.525 104.172C306.101 104.172 306.531 103.978 306.815 103.59C307.099 103.202 307.241 102.656 307.241 101.952C307.241 101.248 307.099 100.702 306.815 100.314C306.531 99.922 306.101 99.726 305.525 99.726C304.941 99.726 304.505 99.922 304.217 100.314C303.933 100.702 303.791 101.248 303.791 101.952C303.791 102.656 303.933 103.202 304.217 103.59C304.505 103.978 304.941 104.172 305.525 104.172Z" fill="black"/>
<rect width="30" height="4" transform="translate(485.5 205)" fill="black"/>
<rect width="10" height="4" transform="translate(485.5 213)" fill="black"/>
<rect width="10" height="4" transform="translate(505.5 213)" fill="black"/>
<rect width="10" height="4" transform="translate(485.5 221)" fill="black"/>
<rect width="10" height="4" transform="translate(505.5 221)" fill="black"/>
<path d="M487.264 230.384V239H486.148V232.868C486.148 232.776 486.15 232.678 486.154 232.574C486.162 232.47 486.17 232.364 486.178 232.256L483.31 237.518C483.21 237.714 483.056 237.812 482.848 237.812H482.668C482.46 237.812 482.308 237.714 482.212 237.518L479.29 232.238C479.314 232.462 479.326 232.672 479.326 232.868V239H478.204V230.384H479.152C479.264 230.384 479.35 230.396 479.41 230.42C479.474 230.44 479.534 230.5 479.59 230.6L482.47 235.76C482.526 235.864 482.578 235.974 482.626 236.09C482.674 236.206 482.72 236.322 482.764 236.438C482.848 236.202 482.946 235.974 483.058 235.754L485.884 230.6C485.936 230.5 485.992 230.44 486.052 230.42C486.116 230.396 486.204 230.384 486.316 230.384H487.264ZM491.434 232.808C491.882 232.808 492.286 232.882 492.646 233.03C493.01 233.174 493.318 233.384 493.57 233.66C493.826 233.932 494.022 234.262 494.158 234.65C494.294 235.034 494.362 235.466 494.362 235.946C494.362 236.426 494.294 236.86 494.158 237.248C494.022 237.636 493.826 237.966 493.57 238.238C493.318 238.51 493.01 238.72 492.646 238.868C492.286 239.012 491.882 239.084 491.434 239.084C490.982 239.084 490.574 239.012 490.21 238.868C489.85 238.72 489.542 238.51 489.286 238.238C489.03 237.966 488.832 237.636 488.692 237.248C488.556 236.86 488.488 236.426 488.488 235.946C488.488 235.466 488.556 235.034 488.692 234.65C488.832 234.262 489.03 233.932 489.286 233.66C489.542 233.384 489.85 233.174 490.21 233.03C490.574 232.882 490.982 232.808 491.434 232.808ZM491.434 238.172C492.01 238.172 492.44 237.978 492.724 237.59C493.008 237.202 493.15 236.656 493.15 235.952C493.15 235.248 493.008 234.702 492.724 234.314C492.44 233.922 492.01 233.726 491.434 233.726C490.85 233.726 490.414 233.922 490.126 234.314C489.842 234.702 489.7 235.248 489.7 235.952C489.7 236.656 489.842 237.202 490.126 237.59C490.414 237.978 490.85 238.172 491.434 238.172ZM496.634 233.75C496.766 233.61 496.904 233.482 497.048 233.366C497.192 233.25 497.344 233.152 497.504 233.072C497.668 232.988 497.842 232.924 498.026 232.88C498.214 232.832 498.414 232.808 498.626 232.808C498.962 232.808 499.256 232.864 499.508 232.976C499.764 233.088 499.978 233.246 500.15 233.45C500.322 233.65 500.452 233.892 500.54 234.176C500.628 234.46 500.672 234.774 500.672 235.118V239H499.496V235.118C499.496 234.682 499.396 234.344 499.196 234.104C498.996 233.86 498.69 233.738 498.278 233.738C497.978 233.738 497.696 233.81 497.432 233.954C497.172 234.094 496.93 234.286 496.706 234.53V239H495.536V232.904H496.238C496.402 232.904 496.504 232.982 496.544 233.138L496.634 233.75ZM503.945 239.096C503.453 239.096 503.073 238.958 502.805 238.682C502.541 238.406 502.409 238.012 502.409 237.5V233.852H501.701C501.633 233.852 501.575 233.832 501.527 233.792C501.483 233.748 501.461 233.684 501.461 233.6V233.126L502.451 232.988L502.715 231.17C502.731 231.102 502.761 231.05 502.805 231.014C502.853 230.974 502.913 230.954 502.985 230.954H503.579V233H505.307V233.852H503.579V237.422C503.579 237.662 503.637 237.842 503.753 237.962C503.873 238.078 504.025 238.136 504.209 238.136C504.317 238.136 504.409 238.122 504.485 238.094C504.565 238.066 504.633 238.036 504.689 238.004C504.745 237.968 504.793 237.936 504.833 237.908C504.873 237.88 504.909 237.866 504.941 237.866C504.981 237.866 505.011 237.876 505.031 237.896C505.055 237.912 505.079 237.94 505.103 237.98L505.451 238.544C505.259 238.72 505.031 238.856 504.767 238.952C504.503 239.048 504.229 239.096 503.945 239.096ZM509.529 236.294C509.053 236.31 508.649 236.348 508.317 236.408C507.985 236.464 507.715 236.54 507.507 236.636C507.299 236.732 507.149 236.846 507.057 236.978C506.965 237.106 506.919 237.25 506.919 237.41C506.919 237.562 506.943 237.694 506.991 237.806C507.043 237.914 507.111 238.004 507.195 238.076C507.283 238.144 507.385 238.194 507.501 238.226C507.617 238.258 507.743 238.274 507.879 238.274C508.059 238.274 508.223 238.256 508.371 238.22C508.523 238.184 508.665 238.134 508.797 238.07C508.929 238.002 509.055 237.92 509.175 237.824C509.295 237.728 509.413 237.618 509.529 237.494V236.294ZM506.097 233.756C506.437 233.432 506.805 233.19 507.201 233.03C507.601 232.87 508.039 232.79 508.515 232.79C508.863 232.79 509.171 232.848 509.439 232.964C509.707 233.076 509.933 233.234 510.117 233.438C510.301 233.642 510.439 233.886 510.531 234.17C510.627 234.454 510.675 234.768 510.675 235.112V239H510.153C510.037 239 509.949 238.982 509.889 238.946C509.829 238.906 509.781 238.834 509.745 238.73L509.619 238.196C509.463 238.34 509.309 238.468 509.157 238.58C509.005 238.688 508.845 238.782 508.677 238.862C508.513 238.938 508.337 238.996 508.149 239.036C507.961 239.076 507.753 239.096 507.525 239.096C507.285 239.096 507.059 239.064 506.847 239C506.639 238.932 506.457 238.83 506.301 238.694C506.145 238.558 506.021 238.388 505.929 238.184C505.841 237.98 505.797 237.742 505.797 237.47C505.797 237.23 505.861 237 505.989 236.78C506.121 236.556 506.333 236.356 506.625 236.18C506.921 236.004 507.305 235.86 507.777 235.748C508.253 235.636 508.837 235.572 509.529 235.556V235.112C509.529 234.652 509.431 234.308 509.235 234.08C509.039 233.852 508.751 233.738 508.371 233.738C508.115 233.738 507.899 233.77 507.723 233.834C507.551 233.898 507.401 233.97 507.273 234.05C507.149 234.126 507.039 234.196 506.943 234.26C506.851 234.324 506.755 234.356 506.655 234.356C506.575 234.356 506.505 234.334 506.445 234.29C506.389 234.246 506.343 234.194 506.307 234.134L506.097 233.756ZM513.207 233.75C513.339 233.61 513.477 233.482 513.621 233.366C513.765 233.25 513.917 233.152 514.077 233.072C514.241 232.988 514.415 232.924 514.599 232.88C514.787 232.832 514.987 232.808 515.199 232.808C515.535 232.808 515.829 232.864 516.081 232.976C516.337 233.088 516.551 233.246 516.723 233.45C516.895 233.65 517.025 233.892 517.113 234.176C517.201 234.46 517.245 234.774 517.245 235.118V239H516.069V235.118C516.069 234.682 515.969 234.344 515.769 234.104C515.569 233.86 515.263 233.738 514.851 233.738C514.551 233.738 514.269 233.81 514.005 233.954C513.745 234.094 513.503 234.286 513.279 234.53V239H512.109V232.904H512.811C512.975 232.904 513.077 232.982 513.117 233.138L513.207 233.75ZM515.349 230.996C515.485 230.996 515.589 230.956 515.661 230.876C515.737 230.796 515.777 230.668 515.781 230.492H516.495C516.495 230.692 516.467 230.874 516.411 231.038C516.359 231.202 516.285 231.344 516.189 231.464C516.093 231.58 515.977 231.67 515.841 231.734C515.705 231.798 515.555 231.83 515.391 231.83C515.251 231.83 515.119 231.802 514.995 231.746C514.875 231.69 514.761 231.628 514.653 231.56C514.545 231.492 514.441 231.43 514.341 231.374C514.245 231.318 514.153 231.29 514.065 231.29C513.933 231.29 513.829 231.332 513.753 231.416C513.681 231.5 513.643 231.628 513.639 231.8H512.913C512.913 231.604 512.939 231.424 512.991 231.26C513.047 231.092 513.125 230.95 513.225 230.834C513.325 230.718 513.441 230.628 513.573 230.564C513.709 230.496 513.859 230.462 514.023 230.462C514.167 230.462 514.299 230.49 514.419 230.546C514.543 230.602 514.659 230.664 514.767 230.732C514.875 230.796 514.977 230.856 515.073 230.912C515.169 230.968 515.261 230.996 515.349 230.996ZM521.968 236.294C521.492 236.31 521.088 236.348 520.756 236.408C520.424 236.464 520.154 236.54 519.946 236.636C519.738 236.732 519.588 236.846 519.496 236.978C519.404 237.106 519.358 237.25 519.358 237.41C519.358 237.562 519.382 237.694 519.43 237.806C519.482 237.914 519.55 238.004 519.634 238.076C519.722 238.144 519.824 238.194 519.94 238.226C520.056 238.258 520.182 238.274 520.318 238.274C520.498 238.274 520.662 238.256 520.81 238.22C520.962 238.184 521.104 238.134 521.236 238.07C521.368 238.002 521.494 237.92 521.614 237.824C521.734 237.728 521.852 237.618 521.968 237.494V236.294ZM518.536 233.756C518.876 233.432 519.244 233.19 519.64 233.03C520.04 232.87 520.478 232.79 520.954 232.79C521.302 232.79 521.61 232.848 521.878 232.964C522.146 233.076 522.372 233.234 522.556 233.438C522.74 233.642 522.878 233.886 522.97 234.17C523.066 234.454 523.114 234.768 523.114 235.112V239H522.592C522.476 239 522.388 238.982 522.328 238.946C522.268 238.906 522.22 238.834 522.184 238.73L522.058 238.196C521.902 238.34 521.748 238.468 521.596 238.58C521.444 238.688 521.284 238.782 521.116 238.862C520.952 238.938 520.776 238.996 520.588 239.036C520.4 239.076 520.192 239.096 519.964 239.096C519.724 239.096 519.498 239.064 519.286 239C519.078 238.932 518.896 238.83 518.74 238.694C518.584 238.558 518.46 238.388 518.368 238.184C518.28 237.98 518.236 237.742 518.236 237.47C518.236 237.23 518.3 237 518.428 236.78C518.56 236.556 518.772 236.356 519.064 236.18C519.36 236.004 519.744 235.86 520.216 235.748C520.692 235.636 521.276 235.572 521.968 235.556V235.112C521.968 234.652 521.87 234.308 521.674 234.08C521.478 233.852 521.19 233.738 520.81 233.738C520.554 233.738 520.338 233.77 520.162 233.834C519.99 233.898 519.84 233.97 519.712 234.05C519.588 234.126 519.478 234.196 519.382 234.26C519.29 234.324 519.194 234.356 519.094 234.356C519.014 234.356 518.944 234.334 518.884 234.29C518.828 234.246 518.782 234.194 518.746 234.134L518.536 233.756Z" fill="black"/>
<rect width="10" height="4" transform="translate(485.5 259)" fill="black"/>
<rect width="10" height="4" transform="translate(505.5 259)" fill="black"/>
<rect width="10" height="4" transform="translate(485.5 267)" fill="black"/>
<rect width="10" height="4" transform="translate(505.5 267)" fill="black"/>
<rect width="10" height="4" transform="translate(485.5 275)" fill="black"/>
<rect width="10" height="4" transform="translate(505.5 275)" fill="black"/>
<path d="M492.256 285.452H489.52V293H488.248V285.452H485.5V284.384H492.256V285.452ZM494.301 286.904V293H493.131V286.904H494.301ZM494.523 285.02C494.523 285.128 494.501 285.232 494.457 285.332C494.413 285.428 494.353 285.514 494.277 285.59C494.205 285.662 494.119 285.72 494.019 285.764C493.919 285.804 493.815 285.824 493.707 285.824C493.599 285.824 493.497 285.804 493.401 285.764C493.305 285.72 493.219 285.662 493.143 285.59C493.071 285.514 493.013 285.428 492.969 285.332C492.929 285.232 492.909 285.128 492.909 285.02C492.909 284.908 492.929 284.804 492.969 284.708C493.013 284.608 493.071 284.522 493.143 284.45C493.219 284.374 493.305 284.316 493.401 284.276C493.497 284.232 493.599 284.21 493.707 284.21C493.815 284.21 493.919 284.232 494.019 284.276C494.119 284.316 494.205 284.374 494.277 284.45C494.353 284.522 494.413 284.608 494.457 284.708C494.501 284.804 494.523 284.908 494.523 285.02ZM499.901 289.274C499.901 289.042 499.867 288.828 499.799 288.632C499.735 288.436 499.639 288.266 499.511 288.122C499.383 287.978 499.227 287.866 499.043 287.786C498.859 287.706 498.647 287.666 498.407 287.666C497.915 287.666 497.527 287.808 497.243 288.092C496.963 288.376 496.785 288.77 496.709 289.274H499.901ZM500.867 292.13C500.723 292.298 500.557 292.444 500.369 292.568C500.181 292.688 499.981 292.786 499.769 292.862C499.557 292.938 499.337 292.994 499.109 293.03C498.885 293.066 498.663 293.084 498.443 293.084C498.023 293.084 497.633 293.014 497.273 292.874C496.917 292.73 496.607 292.522 496.343 292.25C496.083 291.974 495.879 291.634 495.731 291.23C495.587 290.822 495.515 290.354 495.515 289.826C495.515 289.402 495.581 289.008 495.713 288.644C495.845 288.276 496.033 287.956 496.277 287.684C496.525 287.412 496.827 287.198 497.183 287.042C497.539 286.886 497.939 286.808 498.383 286.808C498.755 286.808 499.097 286.87 499.409 286.994C499.725 287.114 499.997 287.29 500.225 287.522C500.453 287.754 500.631 288.04 500.759 288.38C500.891 288.72 500.957 289.108 500.957 289.544C500.957 289.724 500.937 289.846 500.897 289.91C500.857 289.97 500.783 290 500.675 290H496.679C496.691 290.364 496.743 290.682 496.835 290.954C496.927 291.222 497.053 291.446 497.213 291.626C497.377 291.806 497.571 291.94 497.795 292.028C498.019 292.116 498.269 292.16 498.545 292.16C498.805 292.16 499.029 292.13 499.217 292.07C499.409 292.01 499.573 291.946 499.709 291.878C499.849 291.806 499.965 291.74 500.057 291.68C500.153 291.62 500.237 291.59 500.309 291.59C500.405 291.59 500.479 291.626 500.531 291.698L500.867 292.13ZM503.186 288.074C503.382 287.674 503.618 287.36 503.894 287.132C504.17 286.904 504.502 286.79 504.89 286.79C505.022 286.79 505.146 286.806 505.262 286.838C505.382 286.866 505.486 286.91 505.574 286.97L505.496 287.852C505.468 287.96 505.402 288.014 505.298 288.014C505.242 288.014 505.158 288.004 505.046 287.984C504.934 287.96 504.814 287.948 504.686 287.948C504.498 287.948 504.332 287.976 504.188 288.032C504.044 288.084 503.914 288.164 503.798 288.272C503.686 288.376 503.586 288.506 503.498 288.662C503.41 288.814 503.328 288.988 503.252 289.184V293H502.082V286.904H502.754C502.882 286.904 502.968 286.928 503.012 286.976C503.06 287.02 503.094 287.1 503.114 287.216L503.186 288.074ZM507.449 288.074C507.645 287.674 507.881 287.36 508.157 287.132C508.433 286.904 508.765 286.79 509.153 286.79C509.285 286.79 509.409 286.806 509.525 286.838C509.645 286.866 509.749 286.91 509.837 286.97L509.759 287.852C509.731 287.96 509.665 288.014 509.561 288.014C509.505 288.014 509.421 288.004 509.309 287.984C509.197 287.96 509.077 287.948 508.949 287.948C508.761 287.948 508.595 287.976 508.451 288.032C508.307 288.084 508.177 288.164 508.061 288.272C507.949 288.376 507.849 288.506 507.761 288.662C507.673 288.814 507.591 288.988 507.515 289.184V293H506.345V286.904H507.017C507.145 286.904 507.231 286.928 507.275 286.976C507.323 287.02 507.357 287.1 507.377 287.216L507.449 288.074ZM513.789 290.294C513.313 290.31 512.909 290.348 512.577 290.408C512.245 290.464 511.975 290.54 511.767 290.636C511.559 290.732 511.409 290.846 511.317 290.978C511.225 291.106 511.179 291.25 511.179 291.41C511.179 291.562 511.203 291.694 511.251 291.806C511.303 291.914 511.371 292.004 511.455 292.076C511.543 292.144 511.645 292.194 511.761 292.226C511.877 292.258 512.003 292.274 512.139 292.274C512.319 292.274 512.483 292.256 512.631 292.22C512.783 292.184 512.925 292.134 513.057 292.07C513.189 292.002 513.315 291.92 513.435 291.824C513.555 291.728 513.673 291.618 513.789 291.494V290.294ZM510.357 287.756C510.697 287.432 511.065 287.19 511.461 287.03C511.861 286.87 512.299 286.79 512.775 286.79C513.123 286.79 513.431 286.848 513.699 286.964C513.967 287.076 514.193 287.234 514.377 287.438C514.561 287.642 514.699 287.886 514.791 288.17C514.887 288.454 514.935 288.768 514.935 289.112V293H514.413C514.297 293 514.209 292.982 514.149 292.946C514.089 292.906 514.041 292.834 514.005 292.73L513.879 292.196C513.723 292.34 513.569 292.468 513.417 292.58C513.265 292.688 513.105 292.782 512.937 292.862C512.773 292.938 512.597 292.996 512.409 293.036C512.221 293.076 512.013 293.096 511.785 293.096C511.545 293.096 511.319 293.064 511.107 293C510.899 292.932 510.717 292.83 510.561 292.694C510.405 292.558 510.281 292.388 510.189 292.184C510.101 291.98 510.057 291.742 510.057 291.47C510.057 291.23 510.121 291 510.249 290.78C510.381 290.556 510.593 290.356 510.885 290.18C511.181 290.004 511.565 289.86 512.037 289.748C512.513 289.636 513.097 289.572 513.789 289.556V289.112C513.789 288.652 513.691 288.308 513.495 288.08C513.299 287.852 513.011 287.738 512.631 287.738C512.375 287.738 512.159 287.77 511.983 287.834C511.811 287.898 511.661 287.97 511.533 288.05C511.409 288.126 511.299 288.196 511.203 288.26C511.111 288.324 511.015 288.356 510.915 288.356C510.835 288.356 510.765 288.334 510.705 288.29C510.649 288.246 510.603 288.194 510.567 288.134L510.357 287.756Z" fill="black"/>
<rect width="10" height="4" transform="translate(332.5 460)" fill="black"/>
<rect width="10" height="4" transform="translate(352.5 460)" fill="black"/>
<rect width="30" height="4" transform="translate(332.5 468)" fill="black"/>
<rect width="30" height="4" transform="translate(332.5 476)" fill="black"/>
<path d="M341.106 492.926V494H336.174V485.384H337.452V492.926H341.106ZM345.254 491.294C344.778 491.31 344.374 491.348 344.042 491.408C343.71 491.464 343.44 491.54 343.232 491.636C343.024 491.732 342.874 491.846 342.782 491.978C342.69 492.106 342.644 492.25 342.644 492.41C342.644 492.562 342.668 492.694 342.716 492.806C342.768 492.914 342.836 493.004 342.92 493.076C343.008 493.144 343.11 493.194 343.226 493.226C343.342 493.258 343.468 493.274 343.604 493.274C343.784 493.274 343.948 493.256 344.096 493.22C344.248 493.184 344.39 493.134 344.522 493.07C344.654 493.002 344.78 492.92 344.9 492.824C345.02 492.728 345.138 492.618 345.254 492.494V491.294ZM341.822 488.756C342.162 488.432 342.53 488.19 342.926 488.03C343.326 487.87 343.764 487.79 344.24 487.79C344.588 487.79 344.896 487.848 345.164 487.964C345.432 488.076 345.658 488.234 345.842 488.438C346.026 488.642 346.164 488.886 346.256 489.17C346.352 489.454 346.4 489.768 346.4 490.112V494H345.878C345.762 494 345.674 493.982 345.614 493.946C345.554 493.906 345.506 493.834 345.47 493.73L345.344 493.196C345.188 493.34 345.034 493.468 344.882 493.58C344.73 493.688 344.57 493.782 344.402 493.862C344.238 493.938 344.062 493.996 343.874 494.036C343.686 494.076 343.478 494.096 343.25 494.096C343.01 494.096 342.784 494.064 342.572 494C342.364 493.932 342.182 493.83 342.026 493.694C341.87 493.558 341.746 493.388 341.654 493.184C341.566 492.98 341.522 492.742 341.522 492.47C341.522 492.23 341.586 492 341.714 491.78C341.846 491.556 342.058 491.356 342.35 491.18C342.646 491.004 343.03 490.86 343.502 490.748C343.978 490.636 344.562 490.572 345.254 490.556V490.112C345.254 489.652 345.156 489.308 344.96 489.08C344.764 488.852 344.476 488.738 344.096 488.738C343.84 488.738 343.624 488.77 343.448 488.834C343.276 488.898 343.126 488.97 342.998 489.05C342.874 489.126 342.764 489.196 342.668 489.26C342.576 489.324 342.48 489.356 342.38 489.356C342.3 489.356 342.23 489.334 342.17 489.29C342.114 489.246 342.068 489.194 342.032 489.134L341.822 488.756ZM349.976 490.958C350.184 490.958 350.366 490.93 350.522 490.874C350.682 490.818 350.814 490.74 350.918 490.64C351.026 490.536 351.106 490.412 351.158 490.268C351.214 490.124 351.242 489.966 351.242 489.794C351.242 489.442 351.134 489.162 350.918 488.954C350.706 488.742 350.392 488.636 349.976 488.636C349.564 488.636 349.25 488.742 349.034 488.954C348.822 489.162 348.716 489.442 348.716 489.794C348.716 489.966 348.742 490.124 348.794 490.268C348.85 490.408 348.93 490.53 349.034 490.634C349.142 490.734 349.274 490.814 349.43 490.874C349.59 490.93 349.772 490.958 349.976 490.958ZM351.842 494.318C351.842 494.174 351.802 494.06 351.722 493.976C351.642 493.888 351.532 493.82 351.392 493.772C351.256 493.72 351.096 493.684 350.912 493.664C350.728 493.64 350.534 493.622 350.33 493.61C350.13 493.598 349.924 493.588 349.712 493.58C349.5 493.568 349.296 493.548 349.1 493.52C348.892 493.624 348.72 493.75 348.584 493.898C348.452 494.046 348.386 494.22 348.386 494.42C348.386 494.548 348.418 494.668 348.482 494.78C348.55 494.892 348.652 494.988 348.788 495.068C348.928 495.152 349.102 495.216 349.31 495.26C349.522 495.308 349.774 495.332 350.066 495.332C350.354 495.332 350.608 495.306 350.828 495.254C351.048 495.206 351.232 495.136 351.38 495.044C351.532 494.956 351.646 494.85 351.722 494.726C351.802 494.602 351.842 494.466 351.842 494.318ZM353.03 488.132V488.57C353.03 488.714 352.94 488.804 352.76 488.84L352.106 488.936C352.162 489.06 352.206 489.192 352.238 489.332C352.27 489.468 352.286 489.612 352.286 489.764C352.286 490.064 352.228 490.336 352.112 490.58C351.996 490.82 351.836 491.026 351.632 491.198C351.428 491.37 351.184 491.502 350.9 491.594C350.62 491.686 350.312 491.732 349.976 491.732C349.7 491.732 349.442 491.702 349.202 491.642C349.082 491.714 348.99 491.794 348.926 491.882C348.866 491.966 348.836 492.05 348.836 492.134C348.836 492.274 348.894 492.378 349.01 492.446C349.13 492.514 349.284 492.564 349.472 492.596C349.664 492.624 349.882 492.642 350.126 492.65C350.374 492.658 350.624 492.672 350.876 492.692C351.132 492.708 351.382 492.74 351.626 492.788C351.874 492.832 352.092 492.906 352.28 493.01C352.472 493.11 352.626 493.25 352.742 493.43C352.862 493.606 352.922 493.836 352.922 494.12C352.922 494.384 352.856 494.64 352.724 494.888C352.596 495.136 352.408 495.356 352.16 495.548C351.912 495.74 351.61 495.894 351.254 496.01C350.898 496.126 350.494 496.184 350.042 496.184C349.59 496.184 349.196 496.14 348.86 496.052C348.528 495.964 348.25 495.846 348.026 495.698C347.806 495.55 347.64 495.378 347.528 495.182C347.42 494.986 347.366 494.782 347.366 494.57C347.366 494.274 347.458 494.024 347.642 493.82C347.826 493.612 348.08 493.45 348.404 493.334C348.228 493.254 348.088 493.146 347.984 493.01C347.88 492.87 347.828 492.686 347.828 492.458C347.828 492.37 347.844 492.28 347.876 492.188C347.908 492.092 347.956 491.998 348.02 491.906C348.088 491.81 348.17 491.72 348.266 491.636C348.366 491.552 348.48 491.476 348.608 491.408C348.308 491.24 348.072 491.018 347.9 490.742C347.728 490.462 347.642 490.136 347.642 489.764C347.642 489.464 347.7 489.194 347.816 488.954C347.932 488.714 348.092 488.508 348.296 488.336C348.504 488.164 348.75 488.032 349.034 487.94C349.322 487.848 349.636 487.802 349.976 487.802C350.504 487.802 350.958 487.912 351.338 488.132H353.03ZM356.476 487.808C356.924 487.808 357.328 487.882 357.688 488.03C358.052 488.174 358.36 488.384 358.612 488.66C358.868 488.932 359.064 489.262 359.2 489.65C359.336 490.034 359.404 490.466 359.404 490.946C359.404 491.426 359.336 491.86 359.2 492.248C359.064 492.636 358.868 492.966 358.612 493.238C358.36 493.51 358.052 493.72 357.688 493.868C357.328 494.012 356.924 494.084 356.476 494.084C356.024 494.084 355.616 494.012 355.252 493.868C354.892 493.72 354.584 493.51 354.328 493.238C354.072 492.966 353.874 492.636 353.734 492.248C353.598 491.86 353.53 491.426 353.53 490.946C353.53 490.466 353.598 490.034 353.734 489.65C353.874 489.262 354.072 488.932 354.328 488.66C354.584 488.384 354.892 488.174 355.252 488.03C355.616 487.882 356.024 487.808 356.476 487.808ZM356.476 493.172C357.052 493.172 357.482 492.978 357.766 492.59C358.05 492.202 358.192 491.656 358.192 490.952C358.192 490.248 358.05 489.702 357.766 489.314C357.482 488.922 357.052 488.726 356.476 488.726C355.892 488.726 355.456 488.922 355.168 489.314C354.884 489.702 354.742 490.248 354.742 490.952C354.742 491.656 354.884 492.202 355.168 492.59C355.456 492.978 355.892 493.172 356.476 493.172Z" fill="black"/>
<rect width="30" height="4" transform="translate(395.5 460)" fill="black"/>
<rect width="30" height="4" transform="translate(395.5 468)" fill="black"/>
<rect width="30" height="4" transform="translate(395.5 476)" fill="black"/>
<path d="M404.362 492.152C404.434 492.152 404.496 492.18 404.548 492.236L405.052 492.788C404.7 493.204 404.27 493.526 403.762 493.754C403.258 493.982 402.65 494.096 401.938 494.096C401.314 494.096 400.748 493.988 400.24 493.772C399.736 493.556 399.304 493.254 398.944 492.866C398.588 492.478 398.312 492.014 398.116 491.474C397.92 490.934 397.822 490.34 397.822 489.692C397.822 489.044 397.924 488.45 398.128 487.91C398.336 487.37 398.626 486.906 398.998 486.518C399.37 486.13 399.814 485.828 400.33 485.612C400.85 485.396 401.424 485.288 402.052 485.288C402.664 485.288 403.208 485.388 403.684 485.588C404.16 485.788 404.574 486.054 404.926 486.386L404.506 486.98C404.478 487.024 404.442 487.06 404.398 487.088C404.358 487.116 404.304 487.13 404.236 487.13C404.16 487.13 404.07 487.092 403.966 487.016C403.866 486.94 403.732 486.856 403.564 486.764C403.4 486.668 403.196 486.582 402.952 486.506C402.708 486.43 402.404 486.392 402.04 486.392C401.612 486.392 401.22 486.468 400.864 486.62C400.508 486.768 400.2 486.984 399.94 487.268C399.684 487.548 399.484 487.894 399.34 488.306C399.2 488.714 399.13 489.176 399.13 489.692C399.13 490.216 399.204 490.682 399.352 491.09C399.5 491.498 399.704 491.844 399.964 492.128C400.224 492.412 400.53 492.628 400.882 492.776C401.234 492.924 401.614 492.998 402.022 492.998C402.27 492.998 402.492 492.984 402.688 492.956C402.888 492.924 403.07 492.878 403.234 492.818C403.402 492.758 403.56 492.682 403.708 492.59C403.856 492.494 404.002 492.38 404.146 492.248C404.178 492.22 404.212 492.198 404.248 492.182C404.284 492.162 404.322 492.152 404.362 492.152ZM407.188 487.904V494H406.018V487.904H407.188ZM407.41 486.02C407.41 486.128 407.388 486.232 407.344 486.332C407.3 486.428 407.24 486.514 407.164 486.59C407.092 486.662 407.006 486.72 406.906 486.764C406.806 486.804 406.702 486.824 406.594 486.824C406.486 486.824 406.384 486.804 406.288 486.764C406.192 486.72 406.106 486.662 406.03 486.59C405.958 486.514 405.9 486.428 405.856 486.332C405.816 486.232 405.796 486.128 405.796 486.02C405.796 485.908 405.816 485.804 405.856 485.708C405.9 485.608 405.958 485.522 406.03 485.45C406.106 485.374 406.192 485.316 406.288 485.276C406.384 485.232 406.486 485.21 406.594 485.21C406.702 485.21 406.806 485.232 406.906 485.276C407.006 485.316 407.092 485.374 407.164 485.45C407.24 485.522 407.3 485.608 407.344 485.708C407.388 485.804 407.41 485.908 407.41 486.02ZM412.788 490.274C412.788 490.042 412.754 489.828 412.686 489.632C412.622 489.436 412.526 489.266 412.398 489.122C412.27 488.978 412.114 488.866 411.93 488.786C411.746 488.706 411.534 488.666 411.294 488.666C410.802 488.666 410.414 488.808 410.13 489.092C409.85 489.376 409.672 489.77 409.596 490.274H412.788ZM413.754 493.13C413.61 493.298 413.444 493.444 413.256 493.568C413.068 493.688 412.868 493.786 412.656 493.862C412.444 493.938 412.224 493.994 411.996 494.03C411.772 494.066 411.55 494.084 411.33 494.084C410.91 494.084 410.52 494.014 410.16 493.874C409.804 493.73 409.494 493.522 409.23 493.25C408.97 492.974 408.766 492.634 408.618 492.23C408.474 491.822 408.402 491.354 408.402 490.826C408.402 490.402 408.468 490.008 408.6 489.644C408.732 489.276 408.92 488.956 409.164 488.684C409.412 488.412 409.714 488.198 410.07 488.042C410.426 487.886 410.826 487.808 411.27 487.808C411.642 487.808 411.984 487.87 412.296 487.994C412.612 488.114 412.884 488.29 413.112 488.522C413.34 488.754 413.518 489.04 413.646 489.38C413.778 489.72 413.844 490.108 413.844 490.544C413.844 490.724 413.824 490.846 413.784 490.91C413.744 490.97 413.67 491 413.562 491H409.566C409.578 491.364 409.63 491.682 409.722 491.954C409.814 492.222 409.94 492.446 410.1 492.626C410.264 492.806 410.458 492.94 410.682 493.028C410.906 493.116 411.156 493.16 411.432 493.16C411.692 493.16 411.916 493.13 412.104 493.07C412.296 493.01 412.46 492.946 412.596 492.878C412.736 492.806 412.852 492.74 412.944 492.68C413.04 492.62 413.124 492.59 413.196 492.59C413.292 492.59 413.366 492.626 413.418 492.698L413.754 493.13ZM416.169 485.144V494H414.993V485.144H416.169ZM420.306 487.808C420.754 487.808 421.158 487.882 421.518 488.03C421.882 488.174 422.19 488.384 422.442 488.66C422.698 488.932 422.894 489.262 423.03 489.65C423.166 490.034 423.234 490.466 423.234 490.946C423.234 491.426 423.166 491.86 423.03 492.248C422.894 492.636 422.698 492.966 422.442 493.238C422.19 493.51 421.882 493.72 421.518 493.868C421.158 494.012 420.754 494.084 420.306 494.084C419.854 494.084 419.446 494.012 419.082 493.868C418.722 493.72 418.414 493.51 418.158 493.238C417.902 492.966 417.704 492.636 417.564 492.248C417.428 491.86 417.36 491.426 417.36 490.946C417.36 490.466 417.428 490.034 417.564 489.65C417.704 489.262 417.902 488.932 418.158 488.66C418.414 488.384 418.722 488.174 419.082 488.03C419.446 487.882 419.854 487.808 420.306 487.808ZM420.306 493.172C420.882 493.172 421.312 492.978 421.596 492.59C421.88 492.202 422.022 491.656 422.022 490.952C422.022 490.248 421.88 489.702 421.596 489.314C421.312 488.922 420.882 488.726 420.306 488.726C419.722 488.726 419.286 488.922 418.998 489.314C418.714 489.702 418.572 490.248 418.572 490.952C418.572 491.656 418.714 492.202 418.998 492.59C419.286 492.978 419.722 493.172 420.306 493.172Z" fill="black"/>
<rect width="30" height="4" transform="translate(57.5 205)" fill="black"/>
<rect width="30" height="4" transform="translate(57.5 213)" fill="black"/>
<rect width="10" height="4" transform="translate(57.5 221)" fill="black"/>
<rect width="10" height="4" transform="translate(77.5 221)" fill="black"/>
<path d="M63.3827 230.384L59.8787 239H58.7327L55.2287 230.384H56.2487C56.3607 230.384 56.4507 230.412 56.5187 230.468C56.5907 230.524 56.6447 230.596 56.6807 230.684L59.0087 236.54C59.0647 236.684 59.1187 236.842 59.1707 237.014C59.2267 237.186 59.2767 237.366 59.3207 237.554C59.3607 237.366 59.4047 237.186 59.4527 237.014C59.5007 236.842 59.5527 236.684 59.6087 236.54L61.9307 230.684C61.9587 230.604 62.0087 230.534 62.0807 230.474C62.1567 230.414 62.2487 230.384 62.3567 230.384H63.3827ZM65.3104 232.904V239H64.1404V232.904H65.3104ZM65.5324 231.02C65.5324 231.128 65.5104 231.232 65.4664 231.332C65.4224 231.428 65.3624 231.514 65.2864 231.59C65.2144 231.662 65.1284 231.72 65.0284 231.764C64.9284 231.804 64.8244 231.824 64.7164 231.824C64.6084 231.824 64.5064 231.804 64.4104 231.764C64.3144 231.72 64.2284 231.662 64.1524 231.59C64.0804 231.514 64.0224 231.428 63.9784 231.332C63.9384 231.232 63.9184 231.128 63.9184 231.02C63.9184 230.908 63.9384 230.804 63.9784 230.708C64.0224 230.608 64.0804 230.522 64.1524 230.45C64.2284 230.374 64.3144 230.316 64.4104 230.276C64.5064 230.232 64.6084 230.21 64.7164 230.21C64.8244 230.21 64.9284 230.232 65.0284 230.276C65.1284 230.316 65.2144 230.374 65.2864 230.45C65.3624 230.522 65.4224 230.608 65.4664 230.708C65.5104 230.804 65.5324 230.908 65.5324 231.02ZM70.9104 235.274C70.9104 235.042 70.8764 234.828 70.8084 234.632C70.7444 234.436 70.6484 234.266 70.5204 234.122C70.3924 233.978 70.2364 233.866 70.0524 233.786C69.8684 233.706 69.6564 233.666 69.4164 233.666C68.9244 233.666 68.5364 233.808 68.2524 234.092C67.9724 234.376 67.7944 234.77 67.7184 235.274H70.9104ZM71.8764 238.13C71.7324 238.298 71.5664 238.444 71.3784 238.568C71.1904 238.688 70.9904 238.786 70.7784 238.862C70.5664 238.938 70.3464 238.994 70.1184 239.03C69.8944 239.066 69.6724 239.084 69.4524 239.084C69.0324 239.084 68.6424 239.014 68.2824 238.874C67.9264 238.73 67.6164 238.522 67.3524 238.25C67.0924 237.974 66.8884 237.634 66.7404 237.23C66.5964 236.822 66.5244 236.354 66.5244 235.826C66.5244 235.402 66.5904 235.008 66.7224 234.644C66.8544 234.276 67.0424 233.956 67.2864 233.684C67.5344 233.412 67.8364 233.198 68.1924 233.042C68.5484 232.886 68.9484 232.808 69.3924 232.808C69.7644 232.808 70.1064 232.87 70.4184 232.994C70.7344 233.114 71.0064 233.29 71.2344 233.522C71.4624 233.754 71.6404 234.04 71.7684 234.38C71.9004 234.72 71.9664 235.108 71.9664 235.544C71.9664 235.724 71.9464 235.846 71.9064 235.91C71.8664 235.97 71.7924 236 71.6844 236H67.6884C67.7004 236.364 67.7524 236.682 67.8444 236.954C67.9364 237.222 68.0624 237.446 68.2224 237.626C68.3864 237.806 68.5804 237.94 68.8044 238.028C69.0284 238.116 69.2784 238.16 69.5544 238.16C69.8144 238.16 70.0384 238.13 70.2264 238.07C70.4184 238.01 70.5824 237.946 70.7184 237.878C70.8584 237.806 70.9744 237.74 71.0664 237.68C71.1624 237.62 71.2464 237.59 71.3184 237.59C71.4144 237.59 71.4884 237.626 71.5404 237.698L71.8764 238.13ZM74.1899 233.75C74.3219 233.61 74.4599 233.482 74.6039 233.366C74.7479 233.25 74.8999 233.152 75.0599 233.072C75.2239 232.988 75.3979 232.924 75.5819 232.88C75.7699 232.832 75.9699 232.808 76.1819 232.808C76.5179 232.808 76.8119 232.864 77.0639 232.976C77.3199 233.088 77.5339 233.246 77.7059 233.45C77.8779 233.65 78.0079 233.892 78.0959 234.176C78.1839 234.46 78.2279 234.774 78.2279 235.118V239H77.0519V235.118C77.0519 234.682 76.9519 234.344 76.7519 234.104C76.5519 233.86 76.2459 233.738 75.8339 233.738C75.5339 233.738 75.2519 233.81 74.9879 233.954C74.7279 234.094 74.4859 234.286 74.2619 234.53V239H73.0919V232.904H73.7939C73.9579 232.904 74.0599 232.982 74.0999 233.138L74.1899 233.75ZM81.5008 239.096C81.0088 239.096 80.6288 238.958 80.3608 238.682C80.0968 238.406 79.9648 238.012 79.9648 237.5V233.852H79.2568C79.1888 233.852 79.1308 233.832 79.0828 233.792C79.0388 233.748 79.0168 233.684 79.0168 233.6V233.126L80.0068 232.988L80.2708 231.17C80.2868 231.102 80.3168 231.05 80.3608 231.014C80.4088 230.974 80.4688 230.954 80.5408 230.954H81.1348V233H82.8628V233.852H81.1348V237.422C81.1348 237.662 81.1928 237.842 81.3088 237.962C81.4288 238.078 81.5808 238.136 81.7648 238.136C81.8728 238.136 81.9648 238.122 82.0408 238.094C82.1208 238.066 82.1888 238.036 82.2448 238.004C82.3008 237.968 82.3488 237.936 82.3888 237.908C82.4288 237.88 82.4648 237.866 82.4968 237.866C82.5368 237.866 82.5668 237.876 82.5868 237.896C82.6108 237.912 82.6348 237.94 82.6588 237.98L83.0068 238.544C82.8148 238.72 82.5868 238.856 82.3228 238.952C82.0588 239.048 81.7848 239.096 81.5008 239.096ZM86.3713 232.808C86.8193 232.808 87.2233 232.882 87.5833 233.03C87.9473 233.174 88.2553 233.384 88.5073 233.66C88.7633 233.932 88.9593 234.262 89.0953 234.65C89.2313 235.034 89.2993 235.466 89.2993 235.946C89.2993 236.426 89.2313 236.86 89.0953 237.248C88.9593 237.636 88.7633 237.966 88.5073 238.238C88.2553 238.51 87.9473 238.72 87.5833 238.868C87.2233 239.012 86.8193 239.084 86.3713 239.084C85.9193 239.084 85.5113 239.012 85.1473 238.868C84.7873 238.72 84.4793 238.51 84.2233 238.238C83.9673 237.966 83.7693 237.636 83.6293 237.248C83.4933 236.86 83.4253 236.426 83.4253 235.946C83.4253 235.466 83.4933 235.034 83.6293 234.65C83.7693 234.262 83.9673 233.932 84.2233 233.66C84.4793 233.384 84.7873 233.174 85.1473 233.03C85.5113 232.882 85.9193 232.808 86.3713 232.808ZM86.3713 238.172C86.9473 238.172 87.3773 237.978 87.6613 237.59C87.9453 237.202 88.0873 236.656 88.0873 235.952C88.0873 235.248 87.9453 234.702 87.6613 234.314C87.3773 233.922 86.9473 233.726 86.3713 233.726C85.7873 233.726 85.3513 233.922 85.0633 234.314C84.7793 234.702 84.6373 235.248 84.6373 235.952C84.6373 236.656 84.7793 237.202 85.0633 237.59C85.3513 237.978 85.7873 238.172 86.3713 238.172Z" fill="black"/>
<rect width="10" height="4" transform="translate(57.5 259)" fill="#020202"/>
<rect width="10" height="4" transform="translate(77.5 259)" fill="#020202"/>
<rect width="10" height="4" transform="translate(57.5 267)" fill="#020202"/>
<rect width="10" height="4" transform="translate(77.5 267)" fill="#020202"/>
<rect width="30" height="4" transform="translate(57.5 275)" fill="#020202"/>
<path d="M61.3558 285.452H58.6198V293H57.3478V285.452H54.5998V284.384H61.3558V285.452ZM62.0381 288.074C62.2341 287.674 62.4701 287.36 62.7461 287.132C63.0221 286.904 63.3541 286.79 63.7421 286.79C63.8741 286.79 63.9981 286.806 64.1141 286.838C64.2341 286.866 64.3381 286.91 64.4261 286.97L64.3481 287.852C64.3201 287.96 64.2541 288.014 64.1501 288.014C64.0941 288.014 64.0101 288.004 63.8981 287.984C63.7861 287.96 63.6661 287.948 63.5381 287.948C63.3501 287.948 63.1841 287.976 63.0401 288.032C62.8961 288.084 62.7661 288.164 62.6501 288.272C62.5381 288.376 62.4381 288.506 62.3501 288.662C62.2621 288.814 62.1801 288.988 62.1041 289.184V293H60.9341V286.904H61.6061C61.7341 286.904 61.8201 286.928 61.8641 286.976C61.9121 287.02 61.9461 287.1 61.9661 287.216L62.0381 288.074ZM70.2666 286.904V293H69.5646C69.4046 293 69.3006 292.922 69.2526 292.766L69.1686 292.154C69.0366 292.294 68.8986 292.422 68.7546 292.538C68.6106 292.654 68.4566 292.754 68.2926 292.838C68.1286 292.918 67.9546 292.98 67.7706 293.024C67.5866 293.072 67.3886 293.096 67.1766 293.096C66.8406 293.096 66.5446 293.04 66.2886 292.928C66.0366 292.816 65.8246 292.66 65.6526 292.46C65.4806 292.256 65.3506 292.012 65.2626 291.728C65.1746 291.444 65.1306 291.13 65.1306 290.786V286.904H66.3066V290.786C66.3066 291.222 66.4066 291.562 66.6066 291.806C66.8066 292.046 67.1126 292.166 67.5246 292.166C67.8246 292.166 68.1046 292.096 68.3646 291.956C68.6246 291.812 68.8686 291.616 69.0966 291.368V286.904H70.2666ZM75.8057 289.274C75.8057 289.042 75.7717 288.828 75.7037 288.632C75.6397 288.436 75.5437 288.266 75.4157 288.122C75.2877 287.978 75.1317 287.866 74.9477 287.786C74.7637 287.706 74.5517 287.666 74.3117 287.666C73.8197 287.666 73.4317 287.808 73.1477 288.092C72.8677 288.376 72.6897 288.77 72.6137 289.274H75.8057ZM76.7717 292.13C76.6277 292.298 76.4617 292.444 76.2737 292.568C76.0857 292.688 75.8857 292.786 75.6737 292.862C75.4617 292.938 75.2417 292.994 75.0137 293.03C74.7897 293.066 74.5677 293.084 74.3477 293.084C73.9277 293.084 73.5377 293.014 73.1777 292.874C72.8217 292.73 72.5117 292.522 72.2477 292.25C71.9877 291.974 71.7837 291.634 71.6357 291.23C71.4917 290.822 71.4197 290.354 71.4197 289.826C71.4197 289.402 71.4857 289.008 71.6177 288.644C71.7497 288.276 71.9377 287.956 72.1817 287.684C72.4297 287.412 72.7317 287.198 73.0877 287.042C73.4437 286.886 73.8437 286.808 74.2877 286.808C74.6597 286.808 75.0017 286.87 75.3137 286.994C75.6297 287.114 75.9017 287.29 76.1297 287.522C76.3577 287.754 76.5357 288.04 76.6637 288.38C76.7957 288.72 76.8617 289.108 76.8617 289.544C76.8617 289.724 76.8417 289.846 76.8017 289.91C76.7617 289.97 76.6877 290 76.5797 290H72.5837C72.5957 290.364 72.6477 290.682 72.7397 290.954C72.8317 291.222 72.9577 291.446 73.1177 291.626C73.2817 291.806 73.4757 291.94 73.6997 292.028C73.9237 292.116 74.1737 292.16 74.4497 292.16C74.7097 292.16 74.9337 292.13 75.1217 292.07C75.3137 292.01 75.4777 291.946 75.6137 291.878C75.7537 291.806 75.8697 291.74 75.9617 291.68C76.0577 291.62 76.1417 291.59 76.2137 291.59C76.3097 291.59 76.3837 291.626 76.4357 291.698L76.7717 292.13ZM79.0853 287.75C79.2173 287.61 79.3553 287.482 79.4993 287.366C79.6433 287.25 79.7953 287.152 79.9553 287.072C80.1193 286.988 80.2933 286.924 80.4773 286.88C80.6653 286.832 80.8653 286.808 81.0773 286.808C81.4133 286.808 81.7073 286.864 81.9593 286.976C82.2153 287.088 82.4293 287.246 82.6013 287.45C82.7733 287.65 82.9033 287.892 82.9913 288.176C83.0793 288.46 83.1233 288.774 83.1233 289.118V293H81.9473V289.118C81.9473 288.682 81.8473 288.344 81.6473 288.104C81.4473 287.86 81.1413 287.738 80.7293 287.738C80.4293 287.738 80.1473 287.81 79.8833 287.954C79.6233 288.094 79.3813 288.286 79.1573 288.53V293H77.9873V286.904H78.6893C78.8533 286.904 78.9553 286.982 78.9953 287.138L79.0853 287.75ZM87.1681 286.808C87.6161 286.808 88.0201 286.882 88.3801 287.03C88.7441 287.174 89.0521 287.384 89.3041 287.66C89.5601 287.932 89.7561 288.262 89.8921 288.65C90.0281 289.034 90.0961 289.466 90.0961 289.946C90.0961 290.426 90.0281 290.86 89.8921 291.248C89.7561 291.636 89.5601 291.966 89.3041 292.238C89.0521 292.51 88.7441 292.72 88.3801 292.868C88.0201 293.012 87.6161 293.084 87.1681 293.084C86.7161 293.084 86.3081 293.012 85.9441 292.868C85.5841 292.72 85.2761 292.51 85.0201 292.238C84.7641 291.966 84.5661 291.636 84.4261 291.248C84.2901 290.86 84.2221 290.426 84.2221 289.946C84.2221 289.466 84.2901 289.034 84.4261 288.65C84.5661 288.262 84.7641 287.932 85.0201 287.66C85.2761 287.384 85.5841 287.174 85.9441 287.03C86.3081 286.882 86.7161 286.808 87.1681 286.808ZM87.1681 292.172C87.7441 292.172 88.1741 291.978 88.4581 291.59C88.7421 291.202 88.8841 290.656 88.8841 289.952C88.8841 289.248 88.7421 288.702 88.4581 288.314C88.1741 287.922 87.7441 287.726 87.1681 287.726C86.5841 287.726 86.1481 287.922 85.8601 288.314C85.5761 288.702 85.4341 289.248 85.4341 289.952C85.4341 290.656 85.5761 291.202 85.8601 291.59C86.1481 291.978 86.5841 292.172 87.1681 292.172Z" fill="#020202"/>
<rect width="10" height="4" transform="translate(191.5 460)" fill="black"/>
<rect width="10" height="4" transform="translate(211.5 460)" fill="black"/>
<rect width="30" height="4" transform="translate(191.5 468)" fill="black"/>
<rect width="10" height="4" transform="translate(191.5 476)" fill="black"/>
<rect width="10" height="4" transform="translate(211.5 476)" fill="black"/>
<path d="M198.768 490.79L197.49 487.448C197.398 487.22 197.306 486.932 197.214 486.584C197.17 486.756 197.124 486.916 197.076 487.064C197.032 487.212 196.988 487.344 196.944 487.46L195.672 490.79H198.768ZM201.294 494H200.31C200.198 494 200.106 493.972 200.034 493.916C199.962 493.86 199.91 493.788 199.878 493.7L199.116 491.702H195.318L194.556 493.7C194.528 493.776 194.476 493.846 194.4 493.91C194.324 493.97 194.232 494 194.124 494H193.14L196.572 485.384H197.862L201.294 494ZM204.139 490.958C204.347 490.958 204.529 490.93 204.685 490.874C204.845 490.818 204.977 490.74 205.081 490.64C205.189 490.536 205.269 490.412 205.321 490.268C205.377 490.124 205.405 489.966 205.405 489.794C205.405 489.442 205.297 489.162 205.081 488.954C204.869 488.742 204.555 488.636 204.139 488.636C203.727 488.636 203.413 488.742 203.197 488.954C202.985 489.162 202.879 489.442 202.879 489.794C202.879 489.966 202.905 490.124 202.957 490.268C203.013 490.408 203.093 490.53 203.197 490.634C203.305 490.734 203.437 490.814 203.593 490.874C203.753 490.93 203.935 490.958 204.139 490.958ZM206.005 494.318C206.005 494.174 205.965 494.06 205.885 493.976C205.805 493.888 205.695 493.82 205.555 493.772C205.419 493.72 205.259 493.684 205.075 493.664C204.891 493.64 204.697 493.622 204.493 493.61C204.293 493.598 204.087 493.588 203.875 493.58C203.663 493.568 203.459 493.548 203.263 493.52C203.055 493.624 202.883 493.75 202.747 493.898C202.615 494.046 202.549 494.22 202.549 494.42C202.549 494.548 202.581 494.668 202.645 494.78C202.713 494.892 202.815 494.988 202.951 495.068C203.091 495.152 203.265 495.216 203.473 495.26C203.685 495.308 203.937 495.332 204.229 495.332C204.517 495.332 204.771 495.306 204.991 495.254C205.211 495.206 205.395 495.136 205.543 495.044C205.695 494.956 205.809 494.85 205.885 494.726C205.965 494.602 206.005 494.466 206.005 494.318ZM207.193 488.132V488.57C207.193 488.714 207.103 488.804 206.923 488.84L206.269 488.936C206.325 489.06 206.369 489.192 206.401 489.332C206.433 489.468 206.449 489.612 206.449 489.764C206.449 490.064 206.391 490.336 206.275 490.58C206.159 490.82 205.999 491.026 205.795 491.198C205.591 491.37 205.347 491.502 205.063 491.594C204.783 491.686 204.475 491.732 204.139 491.732C203.863 491.732 203.605 491.702 203.365 491.642C203.245 491.714 203.153 491.794 203.089 491.882C203.029 491.966 202.999 492.05 202.999 492.134C202.999 492.274 203.057 492.378 203.173 492.446C203.293 492.514 203.447 492.564 203.635 492.596C203.827 492.624 204.045 492.642 204.289 492.65C204.537 492.658 204.787 492.672 205.039 492.692C205.295 492.708 205.545 492.74 205.789 492.788C206.037 492.832 206.255 492.906 206.443 493.01C206.635 493.11 206.789 493.25 206.905 493.43C207.025 493.606 207.085 493.836 207.085 494.12C207.085 494.384 207.019 494.64 206.887 494.888C206.759 495.136 206.571 495.356 206.323 495.548C206.075 495.74 205.773 495.894 205.417 496.01C205.061 496.126 204.657 496.184 204.205 496.184C203.753 496.184 203.359 496.14 203.023 496.052C202.691 495.964 202.413 495.846 202.189 495.698C201.969 495.55 201.803 495.378 201.691 495.182C201.583 494.986 201.529 494.782 201.529 494.57C201.529 494.274 201.621 494.024 201.805 493.82C201.989 493.612 202.243 493.45 202.567 493.334C202.391 493.254 202.251 493.146 202.147 493.01C202.043 492.87 201.991 492.686 201.991 492.458C201.991 492.37 202.007 492.28 202.039 492.188C202.071 492.092 202.119 491.998 202.183 491.906C202.251 491.81 202.333 491.72 202.429 491.636C202.529 491.552 202.643 491.476 202.771 491.408C202.471 491.24 202.235 491.018 202.063 490.742C201.891 490.462 201.805 490.136 201.805 489.764C201.805 489.464 201.863 489.194 201.979 488.954C202.095 488.714 202.255 488.508 202.459 488.336C202.667 488.164 202.913 488.032 203.197 487.94C203.485 487.848 203.799 487.802 204.139 487.802C204.667 487.802 205.121 487.912 205.501 488.132H207.193ZM213.205 487.904V494H212.503C212.343 494 212.239 493.922 212.191 493.766L212.107 493.154C211.975 493.294 211.837 493.422 211.693 493.538C211.549 493.654 211.395 493.754 211.231 493.838C211.067 493.918 210.893 493.98 210.709 494.024C210.525 494.072 210.327 494.096 210.115 494.096C209.779 494.096 209.483 494.04 209.227 493.928C208.975 493.816 208.763 493.66 208.591 493.46C208.419 493.256 208.289 493.012 208.201 492.728C208.113 492.444 208.069 492.13 208.069 491.786V487.904H209.245V491.786C209.245 492.222 209.345 492.562 209.545 492.806C209.745 493.046 210.051 493.166 210.463 493.166C210.763 493.166 211.043 493.096 211.303 492.956C211.563 492.812 211.807 492.616 212.035 492.368V487.904H213.205ZM217.982 491.294C217.506 491.31 217.102 491.348 216.77 491.408C216.438 491.464 216.168 491.54 215.96 491.636C215.752 491.732 215.602 491.846 215.51 491.978C215.418 492.106 215.372 492.25 215.372 492.41C215.372 492.562 215.396 492.694 215.444 492.806C215.496 492.914 215.564 493.004 215.648 493.076C215.736 493.144 215.838 493.194 215.954 493.226C216.07 493.258 216.196 493.274 216.332 493.274C216.512 493.274 216.676 493.256 216.824 493.22C216.976 493.184 217.118 493.134 217.25 493.07C217.382 493.002 217.508 492.92 217.628 492.824C217.748 492.728 217.866 492.618 217.982 492.494V491.294ZM214.55 488.756C214.89 488.432 215.258 488.19 215.654 488.03C216.054 487.87 216.492 487.79 216.968 487.79C217.316 487.79 217.624 487.848 217.892 487.964C218.16 488.076 218.386 488.234 218.57 488.438C218.754 488.642 218.892 488.886 218.984 489.17C219.08 489.454 219.128 489.768 219.128 490.112V494H218.606C218.49 494 218.402 493.982 218.342 493.946C218.282 493.906 218.234 493.834 218.198 493.73L218.072 493.196C217.916 493.34 217.762 493.468 217.61 493.58C217.458 493.688 217.298 493.782 217.13 493.862C216.966 493.938 216.79 493.996 216.602 494.036C216.414 494.076 216.206 494.096 215.978 494.096C215.738 494.096 215.512 494.064 215.3 494C215.092 493.932 214.91 493.83 214.754 493.694C214.598 493.558 214.474 493.388 214.382 493.184C214.294 492.98 214.25 492.742 214.25 492.47C214.25 492.23 214.314 492 214.442 491.78C214.574 491.556 214.786 491.356 215.078 491.18C215.374 491.004 215.758 490.86 216.23 490.748C216.706 490.636 217.29 490.572 217.982 490.556V490.112C217.982 489.652 217.884 489.308 217.688 489.08C217.492 488.852 217.204 488.738 216.824 488.738C216.568 488.738 216.352 488.77 216.176 488.834C216.004 488.898 215.854 488.97 215.726 489.05C215.602 489.126 215.492 489.196 215.396 489.26C215.304 489.324 215.208 489.356 215.108 489.356C215.028 489.356 214.958 489.334 214.898 489.29C214.842 489.246 214.796 489.194 214.76 489.134L214.55 488.756Z" fill="black"/>
</svg>
