<svg width="56" height="56" viewBox="0 0 56 56" fill="none" xmlns="http://www.w3.org/2000/svg">
<rect width="56" height="56" rx="5" fill="#3A4953"/>
<path d="M21 37C20.45 37 19.9793 36.8043 19.588 36.413C19.1967 36.0217 19.0007 35.5507 19 35V21C19 20.45 19.196 19.9793 19.588 19.588C19.98 19.1967 20.4507 19.0007 21 19H35C35.55 19 36.021 19.196 36.413 19.588C36.805 19.98 37.0007 20.4507 37 21V35C37 35.55 36.8043 36.021 36.413 36.413C36.0217 36.805 35.5507 37.0007 35 37H21ZM21 35H35V21H21V35ZM22 33H34L30.25 28L27.25 32L25 29L22 33Z" fill="#DDE4E8"/>
</svg>
