<svg width="187" height="187" viewBox="0 0 187 187" fill="none" xmlns="http://www.w3.org/2000/svg">
<g clip-path="url(#clip0_331_21711)">
<rect width="187" height="187" fill="#3A4953"/>
<path d="M93.4998 116.875C83.7046 116.875 75.3193 113.388 68.3439 106.412C61.3685 99.4368 57.8808 91.0515 57.8808 81.2563C57.8808 71.461 61.3685 63.0757 68.3439 56.1003C75.3193 49.1249 83.7046 45.6372 93.4998 45.6372C103.295 45.6372 111.68 49.1249 118.656 56.1003C125.631 63.0757 129.119 71.461 129.119 81.2563C129.119 91.0515 125.631 99.4368 118.656 106.412C111.68 113.388 103.295 116.875 93.4998 116.875ZM22.2617 188.113V163.18C22.2617 158.134 23.5618 153.498 26.162 149.271C28.7622 145.044 32.2113 141.815 36.5093 139.582C45.7109 134.982 55.0609 131.533 64.5593 129.235C74.0578 126.938 83.7046 125.786 93.4998 125.78C103.295 125.774 112.942 126.926 122.44 129.235C131.939 131.544 141.289 134.994 150.49 139.582C154.794 141.809 158.246 145.038 160.847 149.271C163.447 153.504 164.744 158.14 164.738 163.18V188.113H22.2617Z" fill="white"/>
</g>
<defs>
<clipPath id="clip0_331_21711">
<rect width="187" height="187" fill="white"/>
</clipPath>
</defs>
</svg>
