<svg width="187" height="187" viewBox="0 0 187 187" fill="none" xmlns="http://www.w3.org/2000/svg">
<rect width="187" height="187" fill="#3A4953"/>
<path d="M74.1667 119.5C72.6083 119.5 71.2748 118.946 70.166 117.837C69.0572 116.728 68.5019 115.394 68.5 113.833V74.1667C68.5 72.6083 69.0553 71.2748 70.166 70.166C71.2767 69.0572 72.6102 68.5019 74.1667 68.5H113.833C115.392 68.5 116.726 69.0553 117.837 70.166C118.947 71.2767 119.502 72.6102 119.5 74.1667V113.833C119.5 115.392 118.946 116.726 117.837 117.837C116.728 118.947 115.394 119.502 113.833 119.5H74.1667ZM74.1667 113.833H113.833V74.1667H74.1667V113.833ZM77 108.167H111L100.375 94L91.875 105.333L85.5 96.8333L77 108.167Z" fill="#DDE4E8"/>
</svg>
